<?xml version="1.0" encoding="UTF-8" standalone="no"?>
<!-- Created with Inkscape (http://www.inkscape.org/) -->

<svg
   xmlns:dc="http://purl.org/dc/elements/1.1/"
   xmlns:cc="http://creativecommons.org/ns#"
   xmlns:rdf="http://www.w3.org/1999/02/22-rdf-syntax-ns#"
   xmlns:svg="http://www.w3.org/2000/svg"
   xmlns="http://www.w3.org/2000/svg"
   xmlns:sodipodi="http://sodipodi.sourceforge.net/DTD/sodipodi-0.dtd"
   xmlns:inkscape="http://www.inkscape.org/namespaces/inkscape"
   width="744.09448819"
   height="1052.3622047"
   id="svg2"
   version="1.1"
   inkscape:version="0.48.5 r10040"
   sodipodi:docname="ducts-unlimited.svg">
  <defs
     id="defs4">
    <clipPath
       clipPathUnits="userSpaceOnUse"
       id="clipPath3948">
      <path
         sodipodi:type="arc"
         style="fill:#ff1eff;fill-opacity:1;stroke:#cf2b08;stroke-width:0;stroke-miterlimit:4;stroke-opacity:0.46560848;stroke-dasharray:none"
         id="path3950"
         sodipodi:cx="168.1904"
         sodipodi:cy="362.42801"
         sodipodi:rx="124.75384"
         sodipodi:ry="93.944183"
         d="m 292.94424,362.42801 a 124.75384,93.944183 0 1 1 -249.507678,0 124.75384,93.944183 0 1 1 249.507678,0 z"
         transform="matrix(1.3238867,0,0,1.5376344,26.337585,-30.198915)" />
    </clipPath>
    <clipPath
       clipPathUnits="userSpaceOnUse"
       id="clipPath3970">
      <path
         sodipodi:type="arc"
         style="fill:#ff1eff;fill-opacity:1;stroke:#cf2b08;stroke-width:0;stroke-miterlimit:4;stroke-opacity:0.46560848;stroke-dasharray:none"
         id="path3972"
         sodipodi:cx="296.98486"
         sodipodi:cy="548.29608"
         sodipodi:rx="153.54318"
         sodipodi:ry="132.32999"
         d="m 450.52805,548.29608 a 153.54318,132.32999 0 1 1 -307.08637,0 153.54318,132.32999 0 1 1 307.08637,0 z"
         transform="translate(-51.51778,-30.304576)" />
    </clipPath>
    <clipPath
       clipPathUnits="userSpaceOnUse"
       id="clipPath3986">
      <path
         sodipodi:type="arc"
         style="fill:#ff1eff;fill-opacity:1;stroke:#cf2b08;stroke-width:0;stroke-miterlimit:4;stroke-opacity:0.46560848;stroke-dasharray:none"
         id="path3988"
         sodipodi:cx="204.55589"
         sodipodi:cy="671.0296"
         sodipodi:rx="122.73354"
         sodipodi:ry="106.57109"
         d="m 327.28944,671.0296 a 122.73354,106.57109 0 1 1 -245.46709,0 122.73354,106.57109 0 1 1 245.46709,0 z"
         transform="translate(35.355339,-148.49243)" />
    </clipPath>
    <clipPath
       clipPathUnits="userSpaceOnUse"
       id="clipPath4038">
      <path
         sodipodi:type="arc"
         style="fill:#ff0000;fill-opacity:1;stroke:#cf2b08;stroke-width:20;stroke-miterlimit:4;stroke-opacity:1;stroke-dasharray:none"
         id="path4040"
         sodipodi:cx="195.46452"
         sodipodi:cy="733.15399"
         sodipodi:rx="73.236061"
         sodipodi:ry="73.741135"
         d="m 268.70058,733.15399 a 73.236061,73.741135 0 1 1 -146.47212,0 73.236061,73.741135 0 1 1 146.47212,0 z"
         transform="matrix(1.7240478,0,0,1.7240478,14.682283,-581.58909)" />
    </clipPath>
    <clipPath
       clipPathUnits="userSpaceOnUse"
       id="clipPath4042">
      <path
         sodipodi:type="arc"
         style="fill:#ff0000;fill-opacity:1;stroke:#cf2b08;stroke-width:20;stroke-miterlimit:4;stroke-opacity:1;stroke-dasharray:none"
         id="path4044"
         sodipodi:cx="195.46452"
         sodipodi:cy="733.15399"
         sodipodi:rx="73.236061"
         sodipodi:ry="73.741135"
         d="m 268.70058,733.15399 a 73.236061,73.741135 0 1 1 -146.47212,0 73.236061,73.741135 0 1 1 146.47212,0 z" />
    </clipPath>
    <clipPath
       clipPathUnits="userSpaceOnUse"
       id="clipPath4069">
      <rect
         style="fill:#ff0000;fill-opacity:1;stroke:#cf2808;stroke-width:0;stroke-miterlimit:4;stroke-opacity:1;stroke-dasharray:none"
         id="rect4071"
         width="492.95444"
         height="175.76654"
         x="144.45181"
         y="409.90515" />
    </clipPath>
    <clipPath
       clipPathUnits="userSpaceOnUse"
       id="clipPath4075">
      <rect
         style="fill:#ff0000;fill-opacity:1;stroke:#cf2808;stroke-width:0;stroke-miterlimit:4;stroke-opacity:1;stroke-dasharray:none"
         id="rect4077"
         width="491.94427"
         height="134.3503"
         x="148.49243"
         y="438.18942" />
    </clipPath>
    <clipPath
       id="clipPath4207"
       clipPathUnits="userSpaceOnUse">
      <path
         id="path4209"
         d="m 7792.38,1100.04 c 0,335.57 272.05,607.58 607.59,607.58 l 0,0 0,-10.18 0,-10.25 c -162.13,0 -308.88,-65.67 -415.18,-171.96 l 0,0 c -106.27,-106.3 -171.99,-253 -171.99,-415.19 l 0,0 c 0,-162.188 65.72,-308.888 171.99,-415.177 l 0,0 c 106.3,-106.25 253.05,-171.953 415.18,-171.953 l 0,0 c 162.24,0 308.94,65.703 415.28,171.953 l 0,0 c 106.23,106.289 171.95,252.989 171.95,415.177 l 0,0 c 0,162.19 -65.72,308.89 -171.95,415.19 l 0,0 c -106.34,106.29 -253.04,171.96 -415.28,171.96 l 0,0 0,10.25 0,10.18 c 335.64,0 607.65,-272.01 607.65,-607.58 l 0,0 c 0,-335.567 -272.01,-607.599 -607.65,-607.657 l 0,0 c -335.54,0.058 -607.59,272.09 -607.59,607.657 l 0,0" />
    </clipPath>
    <clipPath
       id="clipPath4197"
       clipPathUnits="userSpaceOnUse">
      <path
         id="path4199"
         d="m 9499.02,1054.96 c 0.59,14.94 0.98,29.94 0.98,45.04 0,15.08 -0.39,30.08 -0.98,45.04 l -131.94,16.17 c -1.18,19 -2.88,37.89 -5.15,56.58 l 126.77,40.2 c -4.29,29.88 -9.74,59.41 -16.36,88.49 l -132.72,-8.39 c -4.66,18.47 -9.83,36.73 -15.53,54.78 l 117.27,62.83 c -9.72,28.5 -20.61,56.47 -32.53,83.89 l -128.91,-32.68 c -7.97,17.25 -16.43,34.26 -25.38,50.94 l 103.7,83.3 c -14.79,26.17 -30.56,51.72 -47.36,76.53 l -120.7,-55.84 c -10.99,15.46 -22.47,30.54 -34.32,45.31 l 86.63,100.96 c -19.29,23 -39.51,45.19 -60.6,66.54 l -108.38,-77.05 c -13.62,13.14 -27.58,25.94 -41.93,38.3 l 66.66,115.21 c -23.14,19.05 -47.1,37.11 -71.76,54.26 l -92.4,-95.68 c -15.77,10.45 -31.83,20.47 -48.25,30 l 44.38,125.52 c -26.19,14.44 -52.99,27.88 -80.41,40.2 l -73.26,-111.05 c -17.45,7.34 -35.14,14.16 -53.06,20.48 l 20.59,131.55 c -28.33,9.33 -57.16,17.56 -86.46,24.61 l -51.66,-122.72 c -18.44,3.99 -37.04,7.52 -55.86,10.43 l -3.89,133.03 c -29.51,3.9 -59.36,6.74 -89.54,8.26 l -28.28,-130.14 c -9.43,0.28 -18.89,0.43 -28.38,0.43 -9.49,0 -18.95,-0.15 -28.38,-0.43 L 8343.36,2200 c -30.18,-1.52 -60.03,-4.36 -89.53,-8.26 l -3.92,-133.03 c -18.8,-2.91 -37.42,-6.44 -55.86,-10.43 L 8142.41,2171 c -29.29,-7.05 -58.12,-15.28 -86.46,-24.61 l 20.57,-131.55 c -17.89,-6.32 -35.61,-13.14 -53.03,-20.48 l -73.26,111.05 c -27.43,-12.32 -54.25,-25.76 -80.43,-40.2 l 44.39,-125.52 c -16.42,-9.53 -32.5,-19.55 -48.27,-30 l -92.38,95.68 c -24.68,-17.15 -48.64,-35.21 -71.76,-54.26 l 66.64,-115.21 c -14.35,-12.36 -28.31,-25.16 -41.9,-38.3 l -108.4,77.05 c -21.1,-21.35 -41.29,-43.54 -60.61,-66.54 l 86.63,-100.96 c -11.84,-14.77 -23.31,-29.85 -34.3,-45.31 l -120.7,55.84 c -16.82,-24.81 -32.59,-50.36 -47.36,-76.53 l 103.68,-83.3 c -8.94,-16.68 -17.37,-33.69 -25.35,-50.94 l -128.91,32.68 c -11.93,-27.42 -22.84,-55.39 -32.54,-83.89 l 117.27,-62.83 c -5.72,-18.05 -10.89,-36.31 -15.53,-54.78 l -132.71,8.39 c -6.65,-29.08 -12.07,-58.61 -16.37,-88.49 l 126.76,-40.2 c -2.26,-18.69 -3.98,-37.58 -5.14,-56.58 l -131.96,-16.17 c -0.59,-14.96 -0.98,-29.96 -0.98,-45.04 0,-15.1 0.39,-30.1 0.98,-45.04 l 131.96,-16.15 c 1.16,-19.02 2.88,-37.91 5.14,-56.622 l -126.76,-40.157 c 4.3,-29.922 9.72,-59.453 16.37,-88.496 l 132.71,8.379 c 4.64,-18.496 9.81,-36.738 15.53,-54.766 l -117.27,-62.851 c 9.7,-28.516 20.61,-56.465 32.54,-83.887 l 128.91,32.656 c 7.98,-17.246 16.41,-34.218 25.35,-50.918 l -103.68,-83.3 c 14.77,-26.172 30.54,-51.719 47.36,-76.504 l 120.7,55.82 c 10.99,-15.449 22.46,-30.527 34.3,-45.312 l -86.63,-100.957 c 19.32,-22.989 39.51,-45.215 60.61,-66.563 l 108.4,77.09 c 13.59,-13.164 27.55,-25.957 41.9,-38.32 l -66.64,-115.215 c 23.12,-19.043 47.08,-37.129 71.76,-54.258 l 92.38,95.684 c 15.77,-10.45 31.85,-20.489 48.27,-30.02 L 7869.8,134.785 c 26.18,-14.453 53,-27.871 80.43,-40.1952 l 73.26,111.0742 c 17.42,-7.363 35.14,-14.18 53.03,-20.527 L 8055.95,53.5938 c 28.34,-9.336 57.17,-17.5391 86.46,-24.5704 l 51.64,122.6956 c 18.44,-3.985 37.06,-7.5 55.86,-10.43 L 8253.83,8.26172 C 8283.33,4.33594 8313.18,1.54297 8343.36,0 l 28.26,130.137 c 9.43,-0.274 18.89,-0.449 28.38,-0.449 9.49,0 18.95,0.175 28.38,0.449 L 8456.66,0 c 30.18,1.54297 60.03,4.33594 89.54,8.26172 l 3.89,133.02728 c 18.82,2.93 37.42,6.445 55.86,10.43 l 51.66,-122.6956 c 29.3,7.0313 58.13,15.2344 86.46,24.5704 l -20.59,131.5432 c 17.92,6.347 35.61,13.164 53.06,20.527 l 73.24,-111.0742 c 27.44,12.3242 54.24,25.7422 80.43,40.1952 l -44.38,125.508 c 16.42,9.531 32.48,19.57 48.25,30.02 l 92.4,-95.684 c 24.66,17.129 48.62,35.215 71.76,54.258 l -66.66,115.215 c 14.35,12.363 28.31,25.156 41.93,38.32 l 108.38,-77.09 c 21.09,21.348 41.31,43.574 60.6,66.563 l -86.63,100.957 c 11.85,14.785 23.33,29.863 34.32,45.312 l 120.7,-55.82 c 16.8,24.785 32.57,50.332 47.36,76.504 l -103.7,83.3 c 8.95,16.7 17.41,33.672 25.38,50.918 l 128.91,-32.656 c 11.92,27.422 22.81,55.371 32.53,83.887 l -117.27,62.851 c 5.7,18.028 10.87,36.27 15.53,54.766 l 132.72,-8.379 c 6.62,29.043 12.07,58.574 16.36,88.496 l -126.77,40.157 c 2.27,18.712 3.97,37.602 5.15,56.622 l 131.94,16.15 z m -288.52,213.2 c -38.54,-6.4 -95.04,-15.66 -160.62,-26.05 -12.83,58.89 -33.44,114.82 -60.72,166.76 56.93,34.18 106.14,63.4 139.78,83.26 37.38,-69.34 65.16,-144.55 81.56,-223.97 z m -259.79,449.46 c 59.43,-53.03 111.12,-114.46 153.25,-182.46 -34.03,-19.2 -83.93,-47.21 -141.97,-79.38 -31.88,50.26 -70.18,96.04 -113.98,135.96 41.7,51.48 77.91,95.7 102.7,125.88 z m -38.15,31.93 c -25.42,-29.69 -62.68,-73.03 -106.16,-123.05 -46.67,36.1 -98.22,66.1 -153.57,88.87 21.58,62.68 40.49,116.64 53.48,153.44 74.74,-29.81 144.08,-70.16 206.25,-119.26 z m -253.01,136.31 c -13.71,-36.52 -33.91,-90 -57.66,-151.9 -55.45,17.64 -114.07,28.17 -174.77,30.59 -1.15,66.23 -1.85,123.38 -2.24,162.44 81.76,-2.44 160.54,-16.66 234.67,-41.13 z m -284.41,41.13 c -0.38,-39.06 -1.09,-96.21 -2.23,-162.44 -60.72,-2.42 -119.34,-12.95 -174.8,-30.59 -23.75,61.88 -43.95,115.36 -57.66,151.9 74.15,24.47 152.91,38.71 234.69,41.13 z m -281.43,-58.14 c 12.99,-36.82 31.9,-90.78 53.48,-153.48 -55.35,-22.75 -106.9,-52.77 -153.58,-88.87 -43.48,50.02 -80.75,93.36 -106.17,123.03 62.19,49.12 131.51,89.49 206.27,119.32 z m -244.4,-151.23 c 24.79,-30.18 60.99,-74.38 102.69,-125.86 -43.8,-39.92 -82.1,-85.72 -113.99,-135.98 -58.04,32.17 -107.93,60.18 -141.96,79.38 42.13,68 93.83,129.43 153.26,182.46 z m -178.24,-225.47 c 33.63,-19.86 82.86,-49.08 139.77,-83.28 -27.27,-51.94 -47.88,-107.87 -60.71,-166.76 -65.58,10.39 -122.08,19.65 -160.6,26.05 16.37,79.42 44.17,154.67 81.54,223.99 z M 7572.38,1100 c 0,40.47 3.05,80.23 8.67,119.16 38.4,-7.17 94.65,-17.79 159.78,-30.45 -3.88,-29.04 -6.06,-58.61 -6.06,-88.71 0,-30.1 2.18,-59.67 6.06,-88.71 -65.13,-12.657 -121.37,-23.263 -159.78,-30.431 -5.62,38.931 -8.67,78.671 -8.67,119.141 z m 17.15,-168.164 c 38.52,6.406 95.01,15.664 160.61,26.055 12.82,-58.887 33.43,-114.825 60.7,-166.758 -56.91,-34.199 -106.14,-63.399 -139.77,-83.262 -37.37,69.317 -65.17,144.551 -81.54,223.965 z m 259.78,-449.434 c -59.43,52.989 -111.13,114.414 -153.24,182.461 34.02,19.18 83.91,47.188 141.94,79.356 31.89,-50.254 70.19,-96.035 113.98,-135.957 -41.69,-51.485 -77.9,-95.703 -102.68,-125.86 z m 38.13,-31.933 c 25.42,29.668 62.69,73.008 106.17,123.027 46.68,-36.074 98.23,-66.094 153.57,-88.867 -21.58,-62.676 -40.49,-116.641 -53.47,-153.457 -74.76,29.805 -144.08,70.156 -206.27,119.297 z m 253.01,-136.328 c 13.71,36.543 33.91,90.019 57.66,151.914 55.48,-17.657 114.08,-28.164 174.8,-30.606 1.14,-66.25 1.85,-123.379 2.23,-162.441 -81.78,2.422 -160.54,16.64 -234.69,41.133 z M 8216.67,1100 c 0,101.25 82.08,183.34 183.33,183.34 101.25,0 183.33,-82.09 183.33,-183.34 0,-101.25 -82.08,-183.32 -183.33,-183.32 -101.25,0 -183.33,82.07 -183.33,183.32 z m 208.21,-826.992 c 0.39,39.062 1.09,96.211 2.24,162.441 60.71,2.442 119.33,12.949 174.79,30.606 23.75,-61.895 43.94,-115.371 57.66,-151.914 -74.15,-24.493 -152.9,-38.711 -234.69,-41.133 z m 281.43,58.164 c -12.99,36.816 -31.9,90.781 -53.48,153.457 55.35,22.773 106.89,52.793 153.57,88.867 43.48,-50 80.74,-93.359 106.16,-123.027 -62.17,-49.141 -131.51,-89.492 -206.25,-119.297 z m 244.4,151.23 c -24.79,30.157 -61,74.375 -102.7,125.86 43.79,39.922 82.09,85.703 113.98,135.957 58.04,-32.168 107.93,-60.176 141.97,-79.356 -42.13,-68.027 -93.82,-129.472 -153.25,-182.461 z m 178.23,225.469 c -33.64,19.863 -82.87,49.082 -139.78,83.262 27.28,51.933 47.88,107.871 60.72,166.758 65.58,-10.391 122.08,-19.649 160.62,-26.055 -16.4,-79.414 -44.18,-154.648 -81.56,-223.965 z m 90.02,272.988 c -38.4,7.168 -94.64,17.774 -159.79,30.451 3.88,29.02 6.06,58.59 6.06,88.69 0,30.1 -2.18,59.67 -6.05,88.69 65.14,12.68 121.38,23.28 159.78,30.47 5.61,-38.93 8.66,-78.69 8.66,-119.16 0,-40.47 -3.05,-80.21 -8.66,-119.141" />
    </clipPath>
    <clipPath
       id="clipPath4185"
       clipPathUnits="userSpaceOnUse">
      <path
         id="path4187"
         d="m 7065.69,1054.96 c 0.59,14.96 0.98,29.96 0.98,45.04 0,15.1 -0.39,30.1 -0.98,45.04 l -131.94,16.17 c -1.19,19.02 -2.91,37.91 -5.16,56.6 l 126.77,40.18 c -4.27,29.92 -9.72,59.43 -16.36,88.49 l -132.71,-8.39 c -4.67,18.49 -9.84,36.75 -15.55,54.78 l 117.29,62.83 c -9.73,28.52 -20.61,56.49 -32.54,83.89 l -128.93,-32.66 c -7.95,17.25 -16.4,34.24 -25.35,50.94 l 103.67,83.3 c -14.76,26.17 -30.54,51.7 -47.34,76.51 l -120.7,-55.82 c -10.98,15.44 -22.46,30.52 -34.32,45.29 l 86.64,100.96 c -19.3,23 -39.51,45.23 -60.61,66.56 l -108.37,-77.07 c -13.62,13.14 -27.58,25.94 -41.94,38.32 l 66.66,115.19 c -23.14,19.05 -47.09,37.15 -71.76,54.26 l -92.4,-95.66 c -15.76,10.45 -31.85,20.47 -48.24,30.02 l 44.38,125.5 c -26.2,14.44 -52.99,27.88 -80.43,40.18 l -73.25,-111.05 c -17.44,7.36 -35.13,14.18 -53.06,20.52 l 20.58,131.55 c -28.32,9.31 -57.15,17.52 -86.44,24.57 l -51.66,-122.72 c -18.44,4.01 -37.07,7.52 -55.86,10.45 l -3.91,133.01 c -29.49,3.92 -59.35,6.74 -89.55,8.26 l -28.26,-130.12 c -9.43,0.26 -18.89,0.45 -28.38,0.45 -9.49,0 -18.95,-0.19 -28.38,-0.45 L 5910.02,2200 c -30.2,-1.52 -60.04,-4.34 -89.53,-8.26 l -3.91,-133.01 c -18.81,-2.93 -37.42,-6.44 -55.86,-10.45 L 5709.06,2171 c -29.27,-7.05 -58.14,-15.26 -86.46,-24.57 l 20.58,-131.55 c -17.91,-6.34 -35.62,-13.16 -53.02,-20.52 l -73.27,111.05 c -27.42,-12.3 -54.25,-25.74 -80.41,-40.18 l 44.38,-125.5 c -16.41,-9.55 -32.5,-19.57 -48.27,-30.02 l -92.4,95.66 c -24.66,-17.11 -48.63,-35.21 -71.76,-54.26 l 66.66,-115.19 c -14.35,-12.38 -28.31,-25.18 -41.93,-38.32 l -108.37,77.07 c -21.1,-21.33 -41.32,-43.56 -60.61,-66.56 l 86.62,-100.96 c -11.84,-14.77 -23.32,-29.85 -34.3,-45.29 l -120.71,55.82 c -16.79,-24.81 -32.57,-50.34 -47.35,-76.51 l 103.69,-83.3 c -8.95,-16.7 -17.4,-33.69 -25.37,-50.94 l -128.92,32.66 c -11.92,-27.4 -22.81,-55.37 -32.53,-83.89 l 117.27,-62.83 c -5.69,-18.03 -10.87,-36.29 -15.53,-54.78 l -132.71,8.39 c -6.64,-29.06 -12.07,-58.57 -16.37,-88.49 l 126.78,-40.18 c -2.27,-18.69 -3.98,-37.58 -5.16,-56.6 l -131.93,-16.17 c -0.61,-14.94 -1,-29.94 -1,-45.04 0,-15.08 0.39,-30.08 1,-45.04 l 131.93,-16.15 c 1.18,-19.01 2.89,-37.89 5.16,-56.603 l -126.78,-40.176 c 4.3,-29.902 9.73,-59.433 16.37,-88.496 l 132.71,8.379 c 4.66,-18.476 9.84,-36.719 15.53,-54.766 l -117.27,-62.851 c 9.72,-28.496 20.61,-56.465 32.53,-83.887 l 128.92,32.676 c 7.97,-17.246 16.42,-34.258 25.37,-50.918 l -103.69,-83.301 c 14.78,-26.172 30.56,-51.738 47.35,-76.523 l 120.71,55.82 c 10.98,-15.449 22.46,-30.527 34.3,-45.312 l -86.62,-100.957 c 19.29,-22.989 39.51,-45.196 60.61,-66.543 l 108.37,77.07 c 13.62,-13.164 27.58,-25.957 41.93,-38.301 l -66.66,-115.234 c 23.13,-19.043 47.1,-37.11 71.76,-54.258 l 92.4,95.703 c 15.77,-10.469 31.86,-20.488 48.27,-30.019 l -44.38,-125.508 c 26.16,-14.453 52.99,-27.891 80.41,-40.2152 l 73.27,111.0742 c 17.4,-7.344 35.11,-14.16 53.02,-20.508 L 5622.6,53.6133 c 28.32,-9.336 57.19,-17.5586 86.46,-24.5899 l 51.66,122.6956 c 18.44,-3.985 37.05,-7.5 55.86,-10.43 L 5820.49,8.26172 C 5849.98,4.35547 5879.82,1.54297 5910.02,0 l 28.26,130.137 c 9.43,-0.274 18.89,-0.43 28.38,-0.43 9.49,0 18.95,0.156 28.38,0.43 L 6023.3,0 c 30.2,1.54297 60.06,4.35547 89.55,8.26172 l 3.91,133.02728 c 18.79,2.93 37.42,6.445 55.86,10.43 l 51.66,-122.6956 c 29.29,7.0313 58.12,15.2539 86.44,24.5899 l -20.58,131.5427 c 17.93,6.348 35.62,13.164 53.06,20.508 l 73.25,-111.0742 c 27.44,12.3242 54.23,25.7622 80.43,40.2152 l -44.38,125.508 c 16.39,9.531 32.48,19.55 48.24,30.019 l 92.4,-95.703 c 24.67,17.148 48.62,35.215 71.76,54.258 l -66.66,115.234 c 14.36,12.344 28.32,25.137 41.94,38.301 l 108.37,-77.07 c 21.1,21.347 41.31,43.554 60.61,66.543 l -86.64,100.957 c 11.86,14.785 23.34,29.863 34.32,45.312 l 120.7,-55.82 c 16.8,24.785 32.58,50.351 47.34,76.523 l -103.67,83.301 c 8.95,16.66 17.4,33.672 25.35,50.918 l 128.93,-32.676 c 11.93,27.422 22.81,55.391 32.54,83.887 l -117.29,62.851 c 5.71,18.047 10.88,36.29 15.55,54.766 L 7039,853.535 c 6.64,29.063 12.09,58.594 16.36,88.496 l -126.77,40.176 c 2.25,18.713 3.97,37.593 5.16,56.603 l 131.94,16.15 z m -332.58,466.78 c 30.82,-55.86 55.54,-115.51 73.63,-177.99 l -573.83,-133.46 500.2,311.45 z m -135.47,183.81 c 44.47,-46.35 84.04,-97.41 117.52,-152.62 l -519.87,-277.48 402.35,430.1 z m -178.07,142.97 c 55.23,-33.5 106.29,-73.07 152.6,-117.54 l -430.06,-402.35 277.46,519.89 z m -31.17,17.93 -311.45,-500.18 133.42,573.85 c 62.5,-18.13 122.15,-42.85 178.03,-73.67 z m -212.76,83 -171.36,-563.69 -19.63,588.56 c 65.7,-1.33 129.63,-9.83 190.99,-24.87 z m -226.99,24.87 -19.61,-588.58 -171.36,563.71 c 61.38,15.04 125.27,23.54 190.97,24.87 z m -225.72,-34.2 133.46,-573.83 -311.45,500.16 c 55.86,30.82 115.51,55.54 177.99,73.67 z m -209.2,-91.6 277.48,-519.87 -430.08,402.33 c 46.35,44.47 97.41,84.04 152.6,117.54 z m -178.03,-142.97 402.31,-430.08 -519.85,277.46 c 33.48,55.21 73.06,106.27 117.54,152.62 z m -135.47,-183.81 500.18,-311.43 -573.85,133.44 c 18.12,62.48 42.85,122.13 73.67,177.99 z m -83.01,-212.74 563.7,-171.36 -588.56,-19.63 c 1.33,65.7 9.82,129.61 24.86,190.99 z m -24.86,-226.99 588.56,-19.61 -563.7,-171.365 c -15.04,61.367 -23.53,125.275 -24.86,190.975 z m 107.87,-403.729 c -30.82,55.879 -55.55,115.528 -73.67,178.008 L 5700.41,989.727 5200.23,678.281 z M 5335.7,494.492 c -44.48,46.328 -84.06,97.383 -117.54,152.598 L 5738.03,924.57 5335.7,494.492 z m 178.06,-142.988 c -55.22,33.476 -106.28,73.047 -152.63,117.539 l 430.1,402.324 -277.47,-519.863 z m 31.18,-17.949 311.41,500.195 -133.42,-573.828 c -62.48,18.086 -122.13,42.832 -177.99,73.633 z m 212.74,-82.989 171.36,563.692 19.61,-588.574 c -65.7,1.367 -129.59,9.824 -190.97,24.882 z M 5736.19,1100 c 0,127.29 103.2,230.49 230.47,230.49 127.29,0 230.49,-103.2 230.49,-230.49 0,-127.266 -103.2,-230.469 -230.49,-230.469 -127.27,0 -230.47,103.203 -230.47,230.469 z m 248.46,-874.316 19.63,588.574 171.36,-563.692 c -61.36,-15.058 -125.29,-23.515 -190.99,-24.882 z m 225.72,34.238 -133.42,573.828 311.45,-500.195 c -55.88,-30.801 -115.53,-55.547 -178.03,-73.633 z m 209.2,91.582 -277.44,519.844 430.04,-402.305 C 6525.86,424.57 6474.8,384.98 6419.57,351.504 z m 178.07,142.988 -402.35,430.078 519.87,-277.48 c -33.48,-55.215 -73.05,-106.27 -117.52,-152.598 z m 135.47,183.789 -500.18,311.446 573.81,-133.438 c -18.09,-62.48 -42.81,-122.129 -73.63,-178.008 z m 82.98,212.754 -563.69,171.365 588.58,19.61 c -1.35,-65.7 -9.83,-129.608 -24.89,-190.975 z M 6252.38,1137.64 6816.09,1309 c 15.06,-61.38 23.54,-125.29 24.89,-190.99 l -588.6,19.63" />
    </clipPath>
    <clipPath
       id="clipPath4173"
       clipPathUnits="userSpaceOnUse">
      <path
         id="path4175"
         d="m 4632.36,1054.96 c 0.59,14.94 0.98,29.94 0.98,45.04 0,15.08 -0.39,30.08 -0.98,45.04 l -131.95,16.17 c -1.18,19 -2.89,37.89 -5.14,56.58 l 126.75,40.2 c -4.29,29.88 -9.72,59.41 -16.36,88.49 l -132.71,-8.39 c -4.65,18.47 -9.83,36.73 -15.54,54.78 l 117.27,62.83 c -9.7,28.5 -20.6,56.47 -32.53,83.89 l -128.92,-32.68 c -7.96,17.25 -16.41,34.26 -25.35,50.94 l 103.68,83.3 c -14.77,26.17 -30.55,51.72 -47.36,76.53 l -120.7,-55.84 c -10.98,15.46 -22.45,30.54 -34.3,45.31 l 86.63,100.96 c -19.31,23 -39.51,45.19 -60.6,66.54 l -108.4,-77.05 c -13.6,13.14 -27.57,25.94 -41.91,38.3 l 66.65,115.21 c -23.13,19.05 -47.09,37.11 -71.76,54.26 l -92.39,-95.68 c -15.78,10.45 -31.86,20.47 -48.26,30 l 44.38,125.52 c -26.18,14.44 -53,27.88 -80.42,40.2 l -73.26,-111.05 c -17.43,7.34 -35.13,14.16 -53.05,20.48 l 20.58,131.55 c -28.32,9.33 -57.16,17.56 -86.45,24.61 l -51.66,-122.72 c -18.44,3.99 -37.06,7.52 -55.86,10.43 l -3.9,133.03 c -29.5,3.9 -59.35,6.74 -89.55,8.26 l -28.26,-130.14 c -9.43,0.28 -18.88,0.43 -28.37,0.43 -9.5,0 -18.95,-0.15 -28.38,-0.43 L 3476.7,2200 c -30.2,-1.52 -60.06,-4.36 -89.55,-8.26 l -3.9,-133.03 c -18.8,-2.91 -37.43,-6.44 -55.86,-10.43 L 3275.73,2171 c -29.29,-7.05 -58.13,-15.28 -86.45,-24.61 l 20.58,-131.55 c -17.92,-6.32 -35.62,-13.14 -53.04,-20.48 l -73.27,111.05 c -27.42,-12.32 -54.24,-25.76 -80.42,-40.2 l 44.38,-125.52 c -16.4,-9.53 -32.48,-19.55 -48.26,-30 l -92.39,95.68 c -24.66,-17.15 -48.62,-35.21 -71.76,-54.26 l 66.66,-115.21 c -14.35,-12.36 -28.32,-25.16 -41.92,-38.3 l -108.39,77.05 c -21.09,-21.35 -41.31,-43.54 -60.61,-66.54 l 86.64,-100.96 c -11.85,-14.77 -23.32,-29.85 -34.31,-45.31 l -120.7,55.84 c -16.81,-24.81 -32.59,-50.36 -47.36,-76.53 l 103.68,-83.3 c -8.93,-16.68 -17.38,-33.69 -25.36,-50.94 l -128.91,32.68 c -11.93,-27.42 -22.82,-55.39 -32.53,-83.89 l 117.27,-62.83 c -5.7,-18.05 -10.88,-36.31 -15.54,-54.78 l -132.71,8.39 c -6.63,-29.08 -12.07,-58.61 -16.37,-88.49 l 126.77,-40.2 c -2.26,-18.69 -3.97,-37.58 -5.15,-56.58 l -131.94,-16.17 c -0.59,-14.96 -0.98,-29.96 -0.98,-45.04 0,-15.1 0.39,-30.1 0.98,-45.04 l 131.94,-16.15 c 1.18,-19.02 2.89,-37.91 5.15,-56.622 l -126.77,-40.157 c 4.3,-29.922 9.74,-59.453 16.37,-88.496 l 132.71,8.379 c 4.66,-18.496 9.84,-36.738 15.54,-54.766 l -117.27,-62.851 c 9.71,-28.516 20.6,-56.465 32.53,-83.887 l 128.91,32.656 c 7.98,-17.246 16.43,-34.218 25.36,-50.918 l -103.68,-83.3 c 14.77,-26.172 30.55,-51.719 47.36,-76.504 l 120.7,55.82 c 10.99,-15.449 22.46,-30.527 34.31,-45.312 l -86.64,-100.957 c 19.3,-22.989 39.52,-45.215 60.61,-66.563 l 108.39,77.09 c 13.6,-13.164 27.57,-25.957 41.92,-38.32 L 2835.1,248.887 c 23.14,-19.043 47.1,-37.129 71.76,-54.258 l 92.39,95.684 c 15.78,-10.45 31.86,-20.489 48.26,-30.02 l -44.38,-125.508 c 26.18,-14.453 53,-27.871 80.42,-40.1952 l 73.27,111.0742 c 17.42,-7.363 35.12,-14.18 53.04,-20.527 L 3189.28,53.5938 c 28.32,-9.336 57.16,-17.5391 86.45,-24.5704 l 51.66,122.6956 c 18.43,-3.985 37.06,-7.5 55.86,-10.43 l 3.9,-133.02728 C 3416.64,4.33594 3446.5,1.54297 3476.7,0 l 28.26,130.137 c 9.43,-0.274 18.88,-0.449 28.38,-0.449 9.49,0 18.94,0.175 28.37,0.449 L 3589.97,0 c 30.2,1.54297 60.05,4.33594 89.55,8.26172 l 3.9,133.02728 c 18.8,2.93 37.42,6.445 55.86,10.43 l 51.66,-122.6956 c 29.29,7.0313 58.13,15.2344 86.45,24.5704 l -20.58,131.5432 c 17.92,6.347 35.62,13.164 53.05,20.527 l 73.26,-111.0742 c 27.42,12.3242 54.24,25.7422 80.42,40.1952 l -44.38,125.508 c 16.4,9.531 32.48,19.57 48.26,30.02 l 92.39,-95.684 c 24.67,17.129 48.63,35.215 71.76,54.258 l -66.65,115.215 c 14.34,12.363 28.31,25.156 41.91,38.32 l 108.4,-77.09 c 21.09,21.348 41.29,43.574 60.6,66.563 l -86.63,100.957 c 11.85,14.785 23.32,29.863 34.3,45.312 l 120.7,-55.82 c 16.81,24.785 32.59,50.332 47.36,76.504 l -103.68,83.3 c 8.94,16.7 17.39,33.672 25.35,50.918 l 128.92,-32.656 c 11.93,27.422 22.83,55.371 32.53,83.887 l -117.27,62.851 c 5.71,18.028 10.89,36.27 15.54,54.766 l 132.71,-8.379 c 6.64,29.043 12.07,58.574 16.36,88.496 l -126.75,40.157 c 2.25,18.712 3.96,37.602 5.14,56.622 l 131.95,16.15 z m -385.19,494.2 c 11.38,-18.05 22.1,-36.58 32.11,-55.53 l -367.99,-212.46 c -9.3,19.38 -20.1,37.91 -32.16,55.51 l 368.04,212.48 z m -553.5,378.87 c 188.81,-36.33 355.25,-135.61 476.54,-275.2 L 3788.4,1432.38 c -28.85,22.19 -60.64,40.71 -94.73,54.85 l 0,440.8 z m -192.4,14.63 c 10.64,0.39 21.32,0.68 32.07,0.68 10.74,0 21.42,-0.29 32.05,-0.68 l 0,-424.95 c -10.59,0.81 -21.25,1.33 -32.05,1.33 -10.81,0 -21.48,-0.52 -32.07,-1.33 l 0,424.95 z m -128.27,-14.63 0,-440.82 c -34.09,-14.12 -65.87,-32.64 -94.72,-54.81 l -381.81,220.43 c 121.28,139.59 287.71,238.87 476.53,275.2 z m -553.5,-378.87 368.04,-212.48 c -12.06,-17.6 -22.85,-36.11 -32.15,-55.49 l -368,212.44 c 10.02,18.95 20.73,37.48 32.11,55.53 z M 2735.98,824.785 C 2706.21,911.035 2690,1003.61 2690,1100 c 0,96.39 16.21,188.95 45.98,275.21 l 381.97,-220.54 c -2.33,-17.89 -3.66,-36.13 -3.66,-54.67 0,-18.55 1.33,-36.78 3.67,-54.71 L 2735.98,824.785 z M 2819.5,650.84 c -11.38,18.047 -22.09,36.562 -32.11,55.508 l 368,212.461 c 9.31,-19.375 20.1,-37.891 32.15,-55.489 L 2819.5,650.84 z M 3373,271.953 c -188.82,36.348 -355.25,135.625 -476.52,275.235 l 381.8,220.429 c 28.85,-22.168 60.63,-40.703 94.72,-54.824 l 0,-440.84 z m 192.39,-14.629 c -10.63,-0.39 -21.31,-0.644 -32.05,-0.644 -10.75,0 -21.43,0.254 -32.07,0.644 l 0,424.981 c 10.59,-0.801 21.26,-1.348 32.07,-1.348 10.8,0 21.46,0.547 32.05,1.348 l 0,-424.981 z m -32.05,675.059 c -92.57,0 -167.62,75.037 -167.62,167.617 0,92.58 75.05,167.62 167.62,167.62 92.56,0 167.61,-75.04 167.61,-167.62 0,-92.58 -75.05,-167.617 -167.61,-167.617 z m 160.33,-660.43 0,440.84 c 34.09,14.121 65.88,32.656 94.72,54.824 L 4170.2,547.188 C 4048.92,407.578 3882.48,308.301 3693.67,271.953 z m 553.5,378.887 -368.04,212.48 c 12.05,17.598 22.85,36.114 32.16,55.508 l 367.99,-212.48 c -10.01,-18.926 -20.73,-37.442 -32.11,-55.508 z m 83.52,173.945 -381.97,220.525 c 2.33,17.91 3.66,36.15 3.66,54.69 0,18.55 -1.33,36.78 -3.66,54.69 l 381.97,220.52 c 29.77,-86.26 45.98,-178.82 45.98,-275.21 0,-96.39 -16.22,-188.965 -45.98,-275.215" />
    </clipPath>
    <clipPath
       id="clipPath4161"
       clipPathUnits="userSpaceOnUse">
      <path
         id="path4163"
         d="m 183.336,1100.04 c 0,506.23 410.402,916.64 916.624,916.64 l 0,0 0,-15.39 0,-15.49 c -244.601,0 -465.983,-99 -626.351,-259.37 l 0,0 C 313.27,1566.05 214.141,1344.73 214.141,1100.04 l 0,0 c 0,-244.669 99.129,-465.997 259.468,-626.368 l 0,0 C 633.977,313.418 855.359,214.277 1099.96,214.277 l 0,0 c 244.73,0 466.06,99.141 626.49,259.395 l 0,0 c 160.28,160.371 259.41,381.699 259.41,626.368 l 0,0 c 0,244.69 -99.13,466.01 -259.41,626.39 l 0,0 c -160.43,160.37 -381.76,259.37 -626.49,259.37 l 0,0 0,15.49 0,15.39 c 506.34,0 916.7,-410.41 916.7,-916.64 l 0,0 c 0,-506.212 -410.36,-916.602 -916.7,-916.7 l 0,0 c -506.222,0.098 -916.624,410.488 -916.624,916.7 l 0,0" />
    </clipPath>
    <clipPath
       id="clipPath4151"
       clipPathUnits="userSpaceOnUse">
      <path
         id="path4153"
         d="m 2199.02,1054.96 c 0.59,14.96 0.98,29.96 0.98,45.04 0,15.1 -0.39,30.1 -0.98,45.04 l -131.95,16.17 c -1.18,19 -2.89,37.89 -5.14,56.6 l 126.76,40.18 c -4.29,29.9 -9.73,59.43 -16.37,88.49 l -132.71,-8.39 c -4.65,18.49 -9.84,36.73 -15.53,54.78 l 117.27,62.83 c -9.71,28.52 -20.61,56.47 -32.54,83.89 l -128.91,-32.66 c -7.97,17.25 -16.42,34.24 -25.35,50.92 l 103.68,83.3 c -14.78,26.17 -30.56,51.72 -47.37,76.53 l -120.69,-55.84 c -10.99,15.46 -22.46,30.54 -34.31,45.31 l 86.64,100.96 c -19.31,23 -39.52,45.21 -60.61,66.56 L 1773.5,1797.6 c -13.61,13.14 -27.58,25.94 -41.93,38.3 l 66.66,115.21 c -23.13,19.05 -47.1,37.13 -71.75,54.26 l -92.4,-95.68 c -15.78,10.45 -31.85,20.49 -48.26,30.02 l 44.39,125.5 c -26.19,14.46 -53,27.88 -80.42,40.2 l -73.27,-111.05 c -17.42,7.34 -35.13,14.16 -53.05,20.5 l 20.59,131.55 c -28.33,9.33 -57.16,17.54 -86.46,24.59 l -51.66,-122.72 c -18.43,3.99 -37.05,7.52 -55.86,10.43 l -3.89,133.03 c -29.51,3.92 -59.36,6.74 -89.55,8.26 l -28.26,-130.14 c -9.43,0.28 -18.89,0.45 -28.38,0.45 -9.49,0 -18.95,-0.17 -28.38,-0.45 L 1043.36,2200 c -30.19,-1.52 -60.044,-4.34 -89.547,-8.26 l -3.895,-133.03 c -18.809,-2.91 -37.43,-6.44 -55.859,-10.43 L 842.398,2171 c -29.296,-7.05 -58.128,-15.26 -86.46,-24.59 l 20.589,-131.55 c -17.918,-6.34 -35.625,-13.16 -53.047,-20.5 l -73.265,111.05 c -27.422,-12.32 -54.238,-25.74 -80.418,-40.2 l 44.379,-125.5 c -16.403,-9.53 -32.481,-19.57 -48.258,-30.02 l -92.395,95.68 c -24.656,-17.13 -48.621,-35.21 -71.753,-54.26 l 66.66,-115.21 c -14.352,-12.36 -28.325,-25.16 -41.926,-38.3 l -108.395,77.07 c -21.089,-21.35 -41.296,-43.56 -60.605,-66.56 l 86.641,-100.96 c -11.848,-14.77 -23.321,-29.85 -34.309,-45.31 l -120.699,55.84 c -16.809,-24.81 -32.59,-50.36 -47.364,-76.53 l 103.68,-83.3 c -8.933,-16.68 -17.383,-33.67 -25.355,-50.92 L 91.1875,1539.59 C 79.2578,1512.17 68.3633,1484.22 58.6523,1455.7 l 117.2697,-62.83 c -5.695,-18.05 -10.883,-36.29 -15.535,-54.78 l -132.7112,8.39 c -6.6367,-29.06 -12.0742,-58.59 -16.3672,-88.49 l 126.7654,-40.18 c -2.258,-18.71 -3.969,-37.6 -5.148,-56.6 L 0.984375,1145.04 C 0.390625,1130.1 0,1115.1 0,1100 c 0,-15.08 0.390625,-30.08 0.984375,-45.04 L 132.926,1038.81 c 1.179,-19.02 2.89,-37.91 5.148,-56.603 L 11.3086,942.031 c 4.293,-29.922 9.7305,-59.433 16.3672,-88.496 l 132.7112,8.379 c 4.652,-18.476 9.84,-36.738 15.535,-54.766 L 58.6523,744.297 c 9.711,-28.496 20.6055,-56.465 32.5352,-83.887 l 128.9105,32.676 c 7.972,-17.246 16.422,-34.238 25.355,-50.938 l -103.68,-83.3 c 14.774,-26.172 30.555,-51.719 47.364,-76.504 l 120.699,55.82 c 10.988,-15.449 22.461,-30.527 34.309,-45.312 L 257.504,391.895 c 19.309,-22.989 39.516,-45.196 60.605,-66.543 l 108.395,77.07 c 13.601,-13.164 27.574,-25.957 41.926,-38.32 L 401.77,248.887 c 23.132,-19.043 47.097,-37.11 71.753,-54.258 l 92.395,95.684 c 15.777,-10.45 31.855,-20.469 48.258,-30 L 569.797,134.785 c 26.18,-14.433 52.996,-27.871 80.422,-40.1952 L 723.48,205.664 c 17.422,-7.363 35.129,-14.18 53.047,-20.508 L 755.938,53.5938 c 28.332,-9.3165 57.164,-17.5391 86.46,-24.5704 l 51.661,122.6956 c 18.429,-3.985 37.05,-7.5 55.859,-10.43 L 953.813,8.26172 C 983.316,4.35547 1013.17,1.54297 1043.36,0 l 28.26,130.137 c 9.43,-0.274 18.89,-0.43 28.38,-0.43 9.49,0 18.95,0.156 28.38,0.43 L 1156.64,0 c 30.19,1.54297 60.04,4.35547 89.55,8.26172 l 3.89,133.02728 c 18.81,2.93 37.43,6.445 55.86,10.43 L 1357.6,29.0234 c 29.3,7.0313 58.13,15.2539 86.46,24.5704 l -20.59,131.5622 c 17.92,6.328 35.63,13.145 53.05,20.508 l 73.26,-111.0742 c 27.43,12.3242 54.24,25.7622 80.43,40.1952 l -44.39,125.528 c 16.41,9.531 32.48,19.55 48.26,30 l 92.4,-95.684 c 24.65,17.148 48.62,35.215 71.75,54.258 l -66.66,115.215 c 14.35,12.363 28.32,25.156 41.93,38.32 l 108.39,-77.07 c 21.09,21.347 41.3,43.554 60.61,66.543 l -86.64,100.957 c 11.85,14.785 23.32,29.863 34.31,45.312 l 120.69,-55.82 c 16.81,24.785 32.59,50.332 47.37,76.504 l -103.68,83.3 c 8.93,16.7 17.38,33.692 25.35,50.938 l 128.91,-32.676 c 11.93,27.422 22.83,55.391 32.54,83.887 l -117.27,62.851 c 5.69,18.028 10.88,36.29 15.53,54.766 l 132.71,-8.379 c 6.64,29.063 12.08,58.574 16.37,88.496 l -126.76,40.176 c 2.25,18.693 3.96,37.583 5.14,56.603 l 131.95,16.15 z m -471.01,19.32 -75.4,-9.24 c -0.67,-10.88 -1.64,-21.66 -2.94,-32.36 l 72.44,-22.93 c -2.46,-17.094 -5.56,-33.969 -9.36,-50.59 l -75.82,4.785 c -2.67,-10.547 -5.63,-20.976 -8.89,-31.308 l 67.01,-35.879 c -5.54,-16.289 -11.77,-32.266 -18.59,-47.949 l -73.65,18.671 c -4.57,-9.843 -9.39,-19.57 -14.49,-29.121 l 59.24,-47.578 c -8.45,-14.98 -17.46,-29.57 -27.07,-43.711 l -68.97,31.875 c -6.27,-8.847 -12.82,-17.441 -19.59,-25.879 l 49.5,-57.675 c -11.04,-13.164 -22.57,-25.84 -34.63,-38.047 l -61.94,44.043 c -7.78,-7.52 -15.77,-14.824 -23.96,-21.895 l 38.08,-65.84 c -13.22,-10.879 -26.91,-21.23 -41,-30.996 l -52.79,54.668 c -9.02,-5.976 -18.19,-11.699 -27.58,-17.148 l 25.36,-71.738 c -14.96,-8.243 -30.29,-15.918 -45.94,-22.95 l -41.87,63.457 c -9.96,-4.199 -20.08,-8.086 -30.32,-11.718 l 11.76,-75.176 c -16.18,-5.332 -32.66,-10.02 -49.4,-14.043 l -29.51,70.117 c -10.54,-2.285 -21.19,-4.277 -31.93,-5.937 l -2.22,-76.036 c -16.86,-2.246 -33.91,-3.847 -51.18,-4.726 l -16.15,74.375 c -5.38,-0.156 -10.78,-0.254 -16.21,-0.254 -5.43,0 -10.83,0.098 -16.21,0.254 l -16.15,-74.375 c -17.26,0.879 -34.32,2.48 -51.18,4.726 l -2.22,76.036 c -10.74,1.66 -21.388,3.652 -31.927,5.937 l -29.508,-70.117 c -16.746,4.023 -33.223,8.711 -49.407,14.043 l 11.758,75.176 c -10.234,3.632 -20.351,7.519 -30.316,11.718 l -41.867,-63.457 c -15.653,7.032 -30.985,14.707 -45.946,22.95 l 25.36,71.738 c -9.383,5.449 -18.555,11.172 -27.578,17.148 L 742.02,582.656 c -14.094,9.766 -27.782,20.117 -41.004,30.996 l 38.082,65.84 c -8.192,7.071 -16.176,14.375 -23.953,21.895 l -61.942,-44.043 c -12.058,12.207 -23.598,24.883 -34.629,38.047 l 49.5,57.675 c -6.769,8.438 -13.316,17.032 -19.597,25.879 L 579.512,747.07 c -9.614,14.141 -18.621,28.731 -27.071,43.711 l 59.239,47.578 c -5.098,9.551 -9.922,19.278 -14.489,29.121 l -73.656,-18.671 c -6.816,15.683 -13.043,31.66 -18.59,47.949 l 67.012,35.879 c -3.262,10.332 -6.215,20.761 -8.883,31.308 L 487.25,959.16 c -3.805,16.621 -6.902,33.496 -9.359,50.59 l 72.441,22.93 c -1.301,10.7 -2.269,21.48 -2.945,32.36 l -75.395,9.24 c -0.344,8.53 -0.562,17.11 -0.562,25.72 0,8.63 0.218,17.19 0.562,25.74 l 75.395,9.24 c 0.676,10.86 1.644,21.66 2.945,32.34 l -72.441,22.95 c 2.457,17.09 5.554,33.95 9.359,50.59 l 75.824,-4.81 c 2.668,10.55 5.621,21 8.883,31.31 l -67.012,35.9 c 5.547,16.29 11.774,32.27 18.59,47.95 l 73.656,-18.69 c 4.567,9.86 9.391,19.57 14.489,29.12 l -59.239,47.58 c 8.45,14.98 17.457,29.57 27.071,43.73 l 68.965,-31.9 c 6.281,8.85 12.828,17.47 19.597,25.9 l -49.5,57.68 c 11.031,13.16 22.571,25.84 34.629,38.05 l 61.942,-44.05 c 7.777,7.52 15.761,14.83 23.953,21.88 l -38.082,65.86 c 13.222,10.86 26.91,21.21 41.004,30.97 l 52.789,-54.64 c 9.023,5.95 18.195,11.68 27.578,17.12 l -25.36,71.74 c 14.961,8.24 30.293,15.92 45.946,22.97 l 41.867,-63.46 c 9.965,4.18 20.082,8.09 30.316,11.7 l -11.758,75.18 c 16.184,5.33 32.661,10.04 49.407,14.02 l 29.508,-70.09 c 10.539,2.28 21.187,4.29 31.927,5.95 l 2.22,76.04 c 16.86,2.22 33.92,3.83 51.18,4.7 l 16.15,-74.35 c 5.38,0.16 10.78,0.23 16.21,0.23 5.43,0 10.83,-0.07 16.21,-0.23 l 16.15,74.35 c 17.27,-0.87 34.32,-2.48 51.18,-4.7 l 2.22,-76.04 c 10.74,-1.66 21.39,-3.67 31.93,-5.95 l 29.51,70.09 c 16.74,-3.98 33.22,-8.69 49.4,-14.02 l -11.76,-75.18 c 10.24,-3.61 20.36,-7.52 30.32,-11.7 l 41.87,63.46 c 15.65,-7.05 30.98,-14.73 45.94,-22.97 l -25.36,-71.74 c 9.39,-5.44 18.56,-11.17 27.58,-17.12 l 52.79,54.64 c 14.09,-9.76 27.78,-20.11 41,-30.97 l -38.08,-65.86 c 8.19,-7.05 16.18,-14.36 23.96,-21.88 l 61.94,44.05 c 12.06,-12.21 23.59,-24.89 34.63,-38.05 l -49.5,-57.68 c 6.77,-8.43 13.32,-17.05 19.59,-25.9 l 68.97,31.9 c 9.61,-14.16 18.62,-28.75 27.07,-43.73 l -59.24,-47.58 c 5.1,-9.55 9.92,-19.26 14.49,-29.12 l 73.65,18.69 c 6.82,-15.68 13.05,-31.66 18.59,-47.95 l -67.01,-35.9 c 3.26,-10.31 6.22,-20.76 8.89,-31.31 l 75.82,4.81 c 3.8,-16.64 6.9,-33.5 9.36,-50.59 l -72.44,-22.95 c 1.3,-10.68 2.27,-21.48 2.94,-32.34 l 75.4,-9.24 c 0.34,-8.55 0.56,-17.11 0.56,-25.74 0,-8.61 -0.22,-17.19 -0.56,-25.72" />
    </clipPath>
    <clipPath
       id="clipPath4141"
       clipPathUnits="userSpaceOnUse">
      <path
         id="path4143"
         d="m 6897.93,3521.17 c 0,18.48 -0.61,36.82 -1.66,55.04 l 170.39,52.95 c -2.36,24.38 -5.55,48.52 -9.47,72.4 l -178.13,7.05 c -7.42,36.29 -16.99,71.82 -28.51,106.45 l 150.86,95.23 c -8.6,22.84 -17.87,45.34 -27.89,67.42 l -174.11,-39.35 c -16.54,32.93 -34.96,64.75 -55.15,95.31 l 121.05,131.02 c -14.2,19.8 -29.02,39.14 -44.47,57.93 l -157.95,-83.05 c -24.39,27.42 -50.37,53.42 -77.81,77.79 l 83.05,157.97 c -18.79,15.45 -38.11,30.28 -57.92,44.47 l -131.03,-121.05 c -30.57,20.18 -62.38,38.61 -95.31,55.16 l 39.33,174.1 c -22.07,10.04 -44.57,19.31 -67.4,27.91 l -95.25,-150.88 c -34.63,11.5 -70.14,21.07 -106.45,28.5 l -7.03,178.16 c -23.89,3.93 -48.03,7.11 -72.4,9.47 l -52.97,-170.43 c -18.2,1.08 -36.54,1.66 -55.02,1.66 -18.48,0 -36.82,-0.58 -55.04,-1.66 l -52.95,170.43 c -24.37,-2.36 -48.51,-5.54 -72.4,-9.47 l -7.05,-178.16 c -36.31,-7.43 -71.82,-17 -106.45,-28.5 l -95.23,150.88 c -22.83,-8.6 -45.33,-17.87 -67.42,-27.91 l 39.35,-174.1 c -32.93,-16.55 -64.74,-34.98 -95.31,-55.16 l -131.04,121.07 c -19.79,-14.21 -39.12,-29.04 -57.91,-44.49 l 83.05,-157.95 c -27.43,-24.39 -53.42,-50.39 -77.8,-77.81 l -157.96,83.05 c -15.45,-18.79 -30.29,-38.13 -44.48,-57.91 l 121.06,-131.04 c -20.18,-30.56 -38.61,-62.38 -55.15,-95.31 l -174.11,39.35 c -10.04,-22.08 -19.31,-44.58 -27.9,-67.42 l 150.86,-95.25 c -11.5,-34.63 -21.07,-70.14 -28.49,-106.43 l -178.16,-7.05 c -3.92,-23.88 -7.11,-48.02 -9.48,-72.4 l 170.43,-52.95 c -1.06,-18.22 -1.66,-36.56 -1.66,-55.04 0,-18.47 0.6,-36.79 1.66,-55.02 l -170.43,-52.95 c 2.37,-24.39 5.56,-48.53 9.48,-72.4 l 178.16,-7.05 c 7.42,-36.31 16.99,-71.82 28.49,-106.45 l -150.87,-95.23 c 8.59,-22.83 17.87,-45.33 27.89,-67.42 l 174.13,39.35 c 16.54,-32.95 34.97,-64.76 55.15,-95.33 l -121.07,-131.03 c 14.2,-19.81 29.03,-39.12 44.48,-57.91 l 157.97,83.06 c 24.38,-27.44 50.37,-53.41 77.8,-77.81 l -83.05,-157.97 c 18.79,-15.45 38.11,-30.27 57.91,-44.49 l 131.04,121.07 c 30.57,-20.17 62.38,-38.61 95.31,-55.15 l -39.35,-174.12 c 22.09,-10.02 44.59,-19.3 67.42,-27.89 l 95.23,150.87 c 34.63,-11.5 70.14,-21.07 106.45,-28.49 l 7.05,-178.17 c 23.89,-3.92 48.03,-7.1 72.4,-9.47 l 52.95,170.43 c 18.22,-1.07 36.56,-1.66 55.04,-1.66 18.48,0 36.82,0.59 55.02,1.66 l 52.97,-170.43 c 24.37,2.37 48.51,5.55 72.4,9.47 l 7.03,178.17 c 36.31,7.42 71.82,16.99 106.45,28.49 l 95.25,-150.87 c 22.83,8.59 45.33,17.87 67.42,27.89 l -39.35,174.12 c 32.93,16.54 64.74,34.98 95.31,55.15 l 131.03,-121.07 c 19.81,14.22 39.13,29.04 57.93,44.49 l -83.06,157.97 c 27.44,24.4 53.42,50.37 77.81,77.81 l 157.95,-83.06 c 15.45,18.79 30.27,38.12 44.49,57.93 l -121.07,131.01 c 20.19,30.57 38.61,62.38 55.15,95.31 l 174.11,-39.33 c 10.03,22.07 19.31,44.59 27.91,67.4 l -150.88,95.25 c 11.52,34.63 21.09,70.14 28.51,106.45 l 178.13,7.05 c 3.92,23.87 7.11,48.01 9.47,72.4 l -170.39,52.95 c 1.05,18.23 1.66,36.55 1.66,55.02 z m -931.25,-500 c -276.15,0 -500,223.85 -500,500 0,276.13 223.85,500 500,500 276.13,0 500,-223.87 500,-500 0,-276.15 -223.87,-500 -500,-500" />
    </clipPath>
    <clipPath
       id="clipPath4129"
       clipPathUnits="userSpaceOnUse">
      <path
         id="path4131"
         d="m 4464.59,3521.17 c 0,18.48 -0.61,36.82 -1.66,55.04 l 170.41,52.95 c -2.37,24.38 -5.55,48.52 -9.48,72.4 l -178.14,7.05 c -7.42,36.29 -16.99,71.82 -28.51,106.45 l 150.85,95.23 c -8.58,22.84 -17.86,45.34 -27.89,67.42 l -174.1,-39.35 c -16.54,32.93 -34.96,64.75 -55.16,95.31 l 121.07,131.02 c -14.21,19.8 -29.03,39.14 -44.48,57.93 l -157.95,-83.05 c -24.4,27.42 -50.37,53.42 -77.81,77.79 l 83.05,157.97 c -18.8,15.45 -38.11,30.28 -57.92,44.47 l -131.03,-121.05 c -30.57,20.18 -62.38,38.61 -95.31,55.16 l 39.35,174.1 c -22.09,10.04 -44.59,19.31 -67.42,27.91 l -95.24,-150.88 c -34.64,11.5 -70.15,21.07 -106.45,28.5 l -7.04,178.16 c -23.89,3.93 -48.03,7.11 -72.4,9.47 l -52.97,-170.43 c -18.2,1.08 -36.54,1.66 -55.02,1.66 -18.48,0 -36.82,-0.58 -55.03,-1.66 l -52.96,170.43 c -24.37,-2.36 -48.51,-5.54 -72.4,-9.47 l -7.04,-178.16 c -36.31,-7.43 -71.82,-17 -106.45,-28.5 l -95.24,150.88 c -22.83,-8.6 -45.33,-17.87 -67.41,-27.91 l 39.35,-174.1 c -32.94,-16.55 -64.75,-34.98 -95.32,-55.16 l -131.03,121.07 c -19.79,-14.21 -39.12,-29.04 -57.92,-44.49 l 83.06,-157.95 c -27.43,-24.39 -53.42,-50.39 -77.81,-77.81 l -157.96,83.05 c -15.45,-18.79 -30.28,-38.13 -44.48,-57.91 l 121.07,-131.04 c -20.19,-30.56 -38.62,-62.38 -55.16,-95.31 l -174.11,39.35 c -10.03,-22.08 -19.31,-44.58 -27.89,-67.42 l 150.86,-95.25 c -11.51,-34.63 -21.08,-70.14 -28.5,-106.43 l -178.15,-7.05 c -3.93,-23.88 -7.12,-48.02 -9.48,-72.4 l 170.43,-52.95 c -1.07,-18.22 -1.66,-36.56 -1.66,-55.04 0,-18.47 0.59,-36.79 1.66,-55.02 l -170.43,-52.95 c 2.36,-24.39 5.55,-48.53 9.48,-72.4 l 178.15,-7.05 c 7.42,-36.31 16.99,-71.82 28.5,-106.45 l -150.87,-95.23 c 8.58,-22.83 17.86,-45.33 27.89,-67.42 l 174.12,39.35 c 16.54,-32.95 34.97,-64.76 55.16,-95.33 l -121.08,-131.03 c 14.2,-19.81 29.04,-39.12 44.49,-57.91 l 157.96,83.06 c 24.39,-27.44 50.38,-53.41 77.81,-77.81 l -83.06,-157.97 c 18.79,-15.45 38.11,-30.27 57.92,-44.49 l 131.03,121.07 c 30.57,-20.17 62.38,-38.61 95.32,-55.15 l -39.35,-174.12 c 22.08,-10.02 44.58,-19.3 67.41,-27.89 l 95.24,150.87 c 34.63,-11.5 70.14,-21.07 106.45,-28.49 l 7.04,-178.17 c 23.89,-3.92 48.03,-7.1 72.4,-9.47 l 52.96,170.43 c 18.21,-1.07 36.55,-1.66 55.03,-1.66 18.48,0 36.82,0.59 55.02,1.66 l 52.97,-170.43 c 24.37,2.37 48.51,5.55 72.4,9.47 l 7.04,178.17 c 36.3,7.42 71.81,16.99 106.45,28.49 l 95.24,-150.87 c 22.83,8.59 45.33,17.87 67.42,27.89 l -39.35,174.12 c 32.93,16.54 64.74,34.98 95.31,55.15 l 131.03,-121.07 c 19.81,14.22 39.13,29.04 57.93,44.49 l -83.06,157.97 c 27.44,24.4 53.41,50.37 77.81,77.81 l 157.95,-83.06 c 15.45,18.79 30.28,38.12 44.49,57.93 l -121.08,131.01 c 20.2,30.57 38.62,62.38 55.16,95.31 l 174.11,-39.33 c 10.03,22.07 19.31,44.59 27.9,67.4 l -150.87,95.25 c 11.52,34.63 21.09,70.14 28.51,106.45 l 178.14,7.05 c 3.93,23.87 7.11,48.01 9.48,72.4 l -170.41,52.95 c 1.05,18.23 1.66,36.55 1.66,55.02 z m -808.7,720 c 110.34,-18.65 212.29,-61.99 299.91,-124.24 l -266.18,-328.08 c -23.98,14.02 -49.97,24.98 -77.49,32.19 l 43.76,420.13 z m -245.1,0 43.77,-420.13 c -27.52,-7.21 -53.52,-18.15 -77.51,-32.17 l -266.17,328.06 c 87.6,62.25 189.57,105.59 299.91,124.24 z m -473.22,-297.54 328.07,-266.17 c -14.02,-23.98 -24.96,-49.98 -32.18,-77.52 l -420.12,43.77 c 18.65,110.35 62,212.31 124.23,299.92 z m 0,-844.92 c -62.23,87.62 -105.58,189.57 -124.23,299.92 l 420.12,43.75 c 7.22,-27.52 18.15,-53.51 32.18,-77.5 l -328.07,-266.17 z m 473.22,-297.54 c -110.34,18.63 -212.31,61.99 -299.91,124.24 l 266.17,328.07 c 23.99,-14.03 49.98,-24.96 77.51,-32.19 l -43.77,-420.12 z m 122.55,560 c -88.37,0 -160,71.62 -160,160 0,88.36 71.63,160 160,160 88.36,0 160,-71.64 160,-160 0,-88.38 -71.64,-160 -160,-160 z m 122.55,-560 -43.76,420.14 c 27.52,7.21 53.51,18.14 77.49,32.17 l 266.17,-328.07 c -87.61,-62.25 -189.56,-105.61 -299.9,-124.24 z m 473.2,297.54 -328.07,266.17 c 14.03,23.99 24.96,49.98 32.18,77.5 l 420.12,-43.75 c -18.63,-110.35 -61.99,-212.32 -124.23,-299.92 z m -295.89,501.23 c -7.22,27.52 -18.15,53.52 -32.18,77.5 l 328.08,266.19 c 62.23,-87.61 105.59,-189.57 124.22,-299.92 l -420.12,-43.77" />
    </clipPath>
    <clipPath
       id="clipPath4117"
       clipPathUnits="userSpaceOnUse">
      <path
         id="path4119"
         d="m 2031.25,3521.19 c 0,18.48 -0.61,36.8 -1.67,55.02 l 170.42,52.95 c -2.36,24.39 -5.56,48.54 -9.48,72.42 l -178.14,7.03 c -7.43,36.31 -17,71.82 -28.5,106.45 l 150.85,95.23 c -8.59,22.84 -17.87,45.35 -27.89,67.42 l -174.11,-39.35 c -16.54,32.95 -34.96,64.77 -55.15,95.33 l 121.06,131.02 c -14.21,19.78 -29.03,39.12 -44.48,57.91 l -157.96,-83.05 c -24.38,27.44 -50.36,53.42 -77.8,77.79 l 83.06,157.97 c -18.8,15.45 -38.13,30.28 -57.92,44.47 L 1612.5,4298.75 c -30.57,20.18 -62.38,38.61 -95.32,55.16 l 39.35,174.1 c -22.09,10.04 -44.59,19.31 -67.42,27.91 l -95.23,-150.88 c -34.63,11.5 -70.15,21.07 -106.45,28.5 l -7.04,178.16 c -23.89,3.93 -48.01,7.11 -72.4,9.47 l -52.96,-170.43 c -18.21,1.08 -36.55,1.66 -55.03,1.66 -18.48,0 -36.81,-0.58 -55.02,-1.66 l -52.96,170.43 c -24.383,-2.36 -48.512,-5.54 -72.411,-9.47 l -7.043,-178.16 c -36.296,-7.43 -71.812,-17 -106.441,-28.5 l -95.234,150.88 c -22.844,-8.6 -45.332,-17.87 -67.422,-27.91 l 39.351,-174.1 c -32.937,-16.55 -64.754,-34.98 -95.308,-55.16 l -131.035,121.07 c -19.805,-14.21 -39.133,-29.04 -57.922,-44.49 l 83.054,-157.95 c -27.437,-24.39 -53.418,-50.37 -77.808,-77.81 l -157.961,83.05 c -15.449,-18.79 -30.274,-38.13 -44.485,-57.91 l 121.067,-131.02 c -20.188,-30.56 -38.613,-62.38 -55.149,-95.33 l -174.1089,39.35 c -10.0274,-22.07 -19.3086,-44.58 -27.8985,-67.42 l 150.8674,-95.23 c -11.504,-34.63 -21.082,-70.14 -28.496,-106.45 L 9.47266,3701.56 C 5.54688,3677.7 2.36328,3653.55 0,3629.16 l 170.43,-52.95 c -1.067,-18.22 -1.668,-36.54 -1.668,-55.02 0,-18.48 0.601,-36.81 1.668,-55.04 L 0,3413.2 c 2.36328,-24.37 5.54688,-48.51 9.47266,-72.4 l 178.16434,-7.05 c 7.414,-36.29 16.992,-71.8 28.496,-106.43 L 65.2539,3132.07 c 8.5938,-22.83 17.8594,-45.33 27.8906,-67.4 L 267.273,3104 c 16.536,-32.93 34.961,-64.74 55.149,-95.31 L 201.348,2877.66 c 14.211,-19.81 29.035,-39.14 44.484,-57.93 l 157.969,83.06 c 24.39,-27.44 50.371,-53.41 77.808,-77.81 l -83.062,-157.97 c 18.797,-15.45 38.113,-30.27 57.918,-44.47 l 131.047,121.07 c 30.554,-20.19 62.371,-38.61 95.308,-55.15 l -39.351,-174.12 c 22.09,-10.04 44.578,-19.32 67.41,-27.89 l 95.246,150.87 c 34.629,-11.52 70.145,-21.09 106.441,-28.49 l 7.043,-178.19 c 23.899,-3.92 48.028,-7.1 72.411,-9.47 l 52.96,170.43 c 18.21,-1.05 36.54,-1.66 55.02,-1.66 18.48,0 36.82,0.61 55.03,1.66 l 52.96,-170.43 c 24.39,2.37 48.51,5.55 72.4,9.47 l 7.04,178.19 c 36.3,7.4 71.82,16.97 106.45,28.49 l 95.24,-150.87 c 22.83,8.59 45.32,17.85 67.41,27.89 l -39.35,174.12 c 32.94,16.54 64.75,34.96 95.32,55.15 l 131.04,-121.07 c 19.8,14.2 39.13,29.04 57.92,44.49 l -83.06,157.95 c 27.44,24.4 53.42,50.37 77.8,77.81 l 157.97,-83.06 c 15.45,18.81 30.27,38.12 44.48,57.93 l -121.07,131.03 c 20.19,30.57 38.61,62.38 55.15,95.31 l 174.12,-39.35 c 10.03,22.09 19.29,44.59 27.88,67.42 l -150.85,95.23 c 11.5,34.63 21.07,70.16 28.5,106.45 l 178.14,7.05 c 3.92,23.89 7.12,48.03 9.48,72.4 l -170.42,52.95 c 1.06,18.23 1.67,36.56 1.67,55.04 z m -397.38,533.85 c 91.9,-91.93 160.04,-207.38 194.92,-336.54 13.79,-58.09 21.21,-118.73 21.21,-181.16 0,-59.2 -6.79,-116.71 -19.23,-172.05 l -531.43,142.87 c 0.28,4.32 0.66,8.62 0.66,13.01 0,87.35 -56.08,161.41 -134.12,188.67 l 143.29,536.74 c 124.35,-35.8 235.6,-102.46 324.7,-191.54 z M 1100,3321.17 c 51.76,0 98.76,19.83 134.28,52.09 l 380.82,-392.52 c -134.37,-129.8 -315.56,-209.57 -515.1,-209.57 -199.539,0 -380.73,79.77 -515.105,209.57 l 380.82,392.52 C 1001.23,3341 1048.24,3321.17 1100,3321.17 z m -110,200.02 c 0,60.74 49.25,110 110,110 60.75,0 110,-49.26 110,-110 0,-60.76 -49.25,-110 -110,-110 -60.75,0 -110,49.24 -110,110 z m -423.867,533.85 c 89.101,89.08 200.332,155.74 324.687,191.54 l 143.3,-536.74 C 956.074,3682.58 900,3608.52 900,3521.17 c 0,-4.39 0.383,-8.69 0.652,-13.01 L 369.219,3365.29 C 356.789,3420.63 350,3478.14 350,3537.34 c 0,62.37 7.402,122.95 21.172,180.98 34.863,129.24 103.027,244.75 194.961,336.72" />
    </clipPath>
    <clipPath
       id="clipPath4105"
       clipPathUnits="userSpaceOnUse">
      <path
         id="path4107"
         d="m 7550,3521.23 c 0,469.41 380.57,849.94 849.96,849.94 l 0,0 0,-14.26 0,-14.35 c -226.8,0 -432.09,-91.82 -580.79,-240.53 l 0,0 c -148.68,-148.69 -240.6,-353.92 -240.6,-580.8 l 0,0 c 0,-226.89 91.92,-432.11 240.6,-580.82 l 0,0 c 148.7,-148.61 353.99,-240.53 580.79,-240.53 l 0,0 c 226.95,0 432.18,91.92 580.93,240.53 l 0,0 c 148.62,148.71 240.55,353.93 240.55,580.82 l 0,0 c 0,226.88 -91.93,432.11 -240.55,580.8 l 0,0 c -148.75,148.71 -353.98,240.53 -580.93,240.53 l 0,0 0,14.35 0,14.26 c 469.52,0 850.04,-380.53 850.04,-849.94 l 0,0 c 0,-469.41 -380.52,-849.96 -850.04,-850.06 l 0,0 c -469.39,0.1 -849.96,380.65 -849.96,850.06 l 0,0" />
    </clipPath>
    <clipPath
       id="clipPath4095"
       clipPathUnits="userSpaceOnUse">
      <path
         id="path4097"
         d="m 9331.25,3521.19 c 0,18.48 -0.61,36.8 -1.66,55.02 l 170.41,52.95 c -2.36,24.39 -5.55,48.54 -9.47,72.42 l -178.15,7.03 c -7.42,36.31 -16.98,71.82 -28.49,106.45 l 150.84,95.23 c -8.58,22.84 -17.85,45.35 -27.89,67.42 l -174.09,-39.35 c -16.55,32.95 -34.96,64.77 -55.16,95.33 l 121.06,131.02 c -14.2,19.8 -29.03,39.12 -44.48,57.91 l -157.95,-83.05 c -24.39,27.44 -50.37,53.42 -77.81,77.79 l 83.05,157.97 c -18.79,15.45 -38.11,30.28 -57.91,44.47 l -131.04,-121.05 c -30.56,20.18 -62.38,38.61 -95.31,55.16 l 39.34,174.1 c -22.08,10.04 -44.58,19.31 -67.41,27.91 l -95.24,-150.88 c -34.64,11.5 -70.15,21.07 -106.45,28.5 l -7.04,178.16 c -23.88,3.93 -48.02,7.11 -72.4,9.47 l -52.97,-170.43 c -18.2,1.08 -36.54,1.66 -55.02,1.66 -18.47,0 -36.81,-0.58 -55.03,-1.66 l -52.96,170.43 c -24.37,-2.36 -48.51,-5.54 -72.4,-9.47 l -7.04,-178.16 c -36.31,-7.43 -71.82,-17 -106.45,-28.5 l -95.24,150.88 c -22.83,-8.6 -45.33,-17.87 -67.41,-27.91 l 39.35,-174.1 c -32.94,-16.55 -64.75,-34.98 -95.32,-55.16 l -131.03,121.07 c -19.8,-14.21 -39.12,-29.04 -57.93,-44.49 l 83.06,-157.95 c -27.43,-24.39 -53.41,-50.37 -77.8,-77.81 l -157.96,83.05 c -15.45,-18.79 -30.28,-38.11 -44.48,-57.91 l 121.06,-131.02 c -20.18,-30.56 -38.61,-62.38 -55.15,-95.33 l -174.12,39.35 c -10.02,-22.07 -19.3,-44.58 -27.89,-67.42 l 150.86,-95.23 c -11.5,-34.63 -21.07,-70.14 -28.49,-106.45 l -178.16,-7.05 c -3.92,-23.86 -7.12,-48.01 -9.48,-72.4 l 170.43,-52.95 c -1.06,-18.22 -1.66,-36.54 -1.66,-55.02 0,-18.48 0.6,-36.81 1.66,-55.04 L 7300,3413.2 c 2.36,-24.37 5.56,-48.51 9.48,-72.4 l 178.16,-7.05 c 7.42,-36.29 16.99,-71.8 28.49,-106.43 l -150.86,-95.25 c 8.58,-22.83 17.86,-45.33 27.89,-67.4 l 174.12,39.33 c 16.54,-32.93 34.97,-64.74 55.15,-95.31 l -121.07,-131.03 c 14.2,-19.81 29.03,-39.14 44.48,-57.93 l 157.97,83.06 c 24.39,-27.44 50.37,-53.41 77.8,-77.81 l -83.06,-157.97 c 18.79,-15.45 38.12,-30.27 57.93,-44.47 l 131.03,121.07 c 30.57,-20.19 62.38,-38.61 95.32,-55.15 l -39.35,-174.12 c 22.08,-10.04 44.58,-19.32 67.41,-27.89 l 95.24,150.87 c 34.63,-11.52 70.14,-21.09 106.45,-28.49 l 7.04,-178.19 c 23.89,-3.92 48.03,-7.1 72.4,-9.47 l 52.96,170.43 c 18.22,-1.05 36.56,-1.66 55.03,-1.66 18.48,0 36.82,0.61 55.02,1.66 L 8508,2421.17 c 24.38,2.37 48.52,5.55 72.4,9.47 l 7.04,178.19 c 36.3,7.4 71.81,16.97 106.45,28.49 l 95.24,-150.87 c 22.83,8.59 45.33,17.85 67.42,27.89 l -39.35,174.12 c 32.93,16.54 64.75,34.96 95.31,55.15 l 131.04,-121.07 c 19.8,14.2 39.13,29.04 57.93,44.49 l -83.07,157.95 c 27.44,24.4 53.42,50.37 77.81,77.81 l 157.96,-83.06 c 15.45,18.81 30.27,38.12 44.47,57.93 l -121.06,131.03 c 20.2,30.57 38.61,62.38 55.16,95.31 l 174.11,-39.35 c 10.02,22.09 19.29,44.59 27.89,67.42 l -150.86,95.23 c 11.51,34.63 21.07,70.16 28.49,106.45 l 178.15,7.05 c 3.92,23.89 7.11,48.03 9.47,72.4 l -170.41,52.95 c 1.05,18.23 1.66,36.56 1.66,55.04 z m -1034.75,545.31 9.2,-82.73 c -102.22,-20.72 -192.39,-74.53 -259.01,-149.71 l -67.13,49.38 c 80.35,93.18 191.15,159.33 316.94,183.06 z m -344.18,-694.9 -76.37,-33.46 c -20.02,57.31 -30.94,118.89 -30.94,183.03 0,64.16 10.92,125.74 30.94,183.05 l 76.37,-33.46 c -15.72,-47.01 -24.35,-97.28 -24.35,-149.59 0,-52.3 8.63,-102.56 24.35,-149.57 z m 344.18,-395.74 c -125.79,23.73 -236.59,89.88 -316.94,183.07 l 67.13,49.37 c 66.62,-75.17 156.79,-128.98 259.01,-149.71 l -9.2,-82.73 z m 103.5,365.33 c -99.4,0 -180,80.59 -180,180 0,99.4 80.6,180 180,180 99.41,0 180,-80.6 180,-180 0,-99.41 -80.59,-180 -180,-180 z m 103.52,-365.33 -9.19,82.73 c 102.22,20.73 192.38,74.54 259.01,149.71 l 67.12,-49.37 c -80.35,-93.19 -191.14,-159.34 -316.94,-183.07 z m 249.82,858.18 c -66.63,75.18 -156.79,129.01 -259.01,149.73 l 9.19,82.73 c 125.8,-23.73 236.59,-89.88 316.94,-183.06 l -67.12,-49.4 z m 170.74,-495.9 -76.37,33.46 c 15.71,47.01 24.34,97.27 24.34,149.57 0,52.31 -8.63,102.56 -24.34,149.59 l 76.36,33.46 c 20.02,-57.33 30.94,-118.89 30.94,-183.05 0,-64.14 -10.92,-125.72 -30.93,-183.03" />
    </clipPath>
    <clipPath
       id="clipPath4085"
       clipPathUnits="userSpaceOnUse">
      <path
         id="path4087"
         d="m 9352.4,5959.49 c 0,21.64 -0.78,43.09 -2.2,64.35 l 149.8,93.04 c -5.68,40.09 -13.46,79.53 -23.3,118.12 l -173.89,28.61 c -13.83,41.04 -30.41,80.8 -49.45,119.12 l 102.69,143.15 c -20.54,34.63 -42.89,68.07 -66.97,100.14 l -171.68,-40.14 c -28.26,32.34 -58.67,62.75 -91.01,91.01 l 40.13,171.68 c -32.07,24.09 -65.5,46.42 -100.13,66.98 l -143.15,-102.7 c -38.32,19.04 -78.08,35.63 -119.12,49.45 l -28.61,173.89 c -38.6,9.85 -78.03,17.61 -118.13,23.29 l -93.02,-149.79 c -21.27,1.42 -42.72,2.2 -64.36,2.2 -21.64,0 -43.07,-0.78 -64.36,-2.2 l -93.02,149.79 c -40.1,-5.68 -79.53,-13.44 -118.13,-23.29 l -28.61,-173.89 c -41.04,-13.82 -80.8,-30.41 -119.12,-49.45 l -143.15,102.7 c -34.63,-20.55 -68.06,-42.89 -100.13,-66.98 l 40.13,-171.68 c -32.34,-28.26 -62.75,-58.67 -91.01,-91.01 l -171.68,40.14 c -24.08,-32.07 -46.43,-65.51 -66.97,-100.14 l 102.69,-143.15 c -19.04,-38.32 -35.62,-78.08 -49.45,-119.12 L 7323.3,6235 c -9.84,-38.59 -17.62,-78.03 -23.3,-118.12 l 149.8,-93.04 c -1.42,-21.26 -2.22,-42.71 -2.22,-64.35 0,-21.64 0.8,-43.08 2.22,-64.35 L 7300,5802.1 c 5.68,-40.1 13.46,-79.52 23.3,-118.12 l 173.89,-28.61 c 13.83,-41.03 30.41,-80.8 49.45,-119.12 L 7443.95,5393.1 c 20.54,-34.62 42.89,-68.06 66.95,-100.13 l 171.7,40.14 c 28.26,-32.35 58.67,-62.77 91.01,-91.02 l -40.13,-171.7 c 32.07,-24.06 65.5,-46.41 100.13,-66.96 l 143.15,102.7 c 38.32,-19.04 78.08,-35.62 119.12,-49.45 l 28.61,-173.89 c 38.6,-9.84 78.03,-17.61 118.13,-23.3 l 93.02,149.8 c 21.29,-1.42 42.72,-2.22 64.36,-2.22 21.64,0 43.09,0.8 64.36,2.22 l 93.02,-149.8 c 40.1,5.69 79.53,13.46 118.13,23.3 l 28.61,173.89 c 41.04,13.83 80.8,30.41 119.12,49.45 l 143.15,-102.7 c 34.63,20.55 68.06,42.9 100.13,66.97 l -40.13,171.69 c 32.34,28.25 62.75,58.67 91.01,91.02 l 171.68,-40.14 c 24.08,32.07 46.43,65.51 66.97,100.13 l -102.69,143.15 c 19.04,38.32 35.62,78.09 49.45,119.12 l 173.89,28.61 c 9.84,38.6 17.62,78.02 23.3,118.12 l -149.8,93.04 c 1.42,21.27 2.2,42.71 2.2,64.35 z m -273.28,422.72 -549.94,-293.54 293.53,549.94 c 103.81,-64.74 191.67,-152.59 256.41,-256.4 z m -302.28,283.02 -329.55,-529.28 -20.77,622.87 c 126.37,-4.13 245.36,-37.41 350.32,-93.59 z m -403.36,93.59 -20.77,-622.88 -329.57,529.29 c 104.99,56.18 223.95,89.46 350.34,93.59 z m -396.19,-120.21 293.53,-549.94 -549.94,293.54 c 64.75,103.81 152.6,191.66 256.41,256.4 z m -283.03,-302.28 529.28,-329.57 -622.88,-20.74 c 4.13,126.36 37.43,245.33 93.6,350.31 z m -93.6,-403.37 622.88,-20.75 -529.28,-329.57 c -56.17,104.98 -89.47,223.94 -93.6,350.32 z m 120.22,-396.18 549.94,293.53 -293.53,-549.96 c -103.81,64.77 -191.66,152.61 -256.41,256.43 z m 302.26,-283.03 329.57,529.28 20.77,-622.87 c -126.39,4.12 -245.35,37.42 -350.34,93.59 z M 8290,5959.49 c 0,60.74 49.25,110 110,110 60.75,0 110,-49.26 110,-110 0,-60.75 -49.25,-110 -110,-110 -60.75,0 -110,49.25 -110,110 z m 136.52,-799.33 20.77,622.87 329.55,-529.28 c -104.96,-56.17 -223.95,-89.47 -350.32,-93.59 z m 396.19,120.2 -293.55,549.96 549.96,-293.54 c -64.74,-103.81 -152.6,-191.66 -256.41,-256.42 z m 283.03,302.28 -529.28,329.57 622.86,20.76 c -4.12,-126.39 -37.41,-245.35 -93.58,-350.33 z m -529.28,424.14 529.28,329.55 c 56.17,-104.97 89.46,-223.95 93.58,-350.31 l -622.86,20.76" />
    </clipPath>
    <clipPath
       id="clipPath4073"
       clipPathUnits="userSpaceOnUse">
      <path
         id="path4075"
         d="m 5116.66,5942.38 c 0,469.42 380.57,849.96 849.96,849.96 l 0,0 0,-14.25 0,-14.36 c -226.8,0 -432.09,-91.82 -580.78,-240.53 l 0,0 c -148.69,-148.71 -240.61,-353.93 -240.61,-580.82 l 0,0 c 0,-226.87 91.92,-432.11 240.61,-580.8 l 0,0 c 148.69,-148.61 353.98,-240.54 580.78,-240.54 l 0,0 c 226.95,0 432.19,91.93 580.94,240.54 l 0,0 c 148.61,148.69 240.55,353.93 240.55,580.8 l 0,0 c 0,226.89 -91.94,432.11 -240.55,580.82 l 0,0 c -148.75,148.71 -353.99,240.53 -580.94,240.53 l 0,0 0,14.36 0,14.25 c 469.53,0 850.04,-380.54 850.04,-849.96 l 0,0 c 0,-469.41 -380.51,-849.96 -850.04,-850.04 l 0,0 c -469.39,0.08 -849.96,380.63 -849.96,850.04 l 0,0" />
    </clipPath>
    <clipPath
       id="clipPath4063"
       clipPathUnits="userSpaceOnUse">
      <path
         id="path4065"
         d="m 6919.08,5942.34 c 0,21.64 -0.78,43.09 -2.2,64.36 l 149.79,93.05 c -5.69,40.09 -13.46,79.51 -23.3,118.12 l -173.9,28.61 c -13.81,41.04 -30.41,80.79 -49.45,119.11 l 102.71,143.16 c -20.56,34.63 -42.89,68.07 -66.97,100.13 l -171.68,-40.13 c -28.26,32.32 -58.69,62.75 -91.01,91.01 l 40.13,171.69 c -32.07,24.08 -65.52,46.4 -100.13,66.97 l -143.17,-102.7 c -38.32,19.03 -78.06,35.62 -119.1,49.44 l -28.61,173.88 c -38.62,9.85 -78.03,17.62 -118.13,23.3 l -93.04,-149.79 c -21.27,1.43 -42.72,2.22 -64.36,2.22 -21.62,0 -43.07,-0.79 -64.34,-2.22 l -93.04,149.79 c -40.1,-5.68 -79.51,-13.45 -118.13,-23.3 l -28.59,-173.88 c -41.06,-13.82 -80.8,-30.41 -119.14,-49.44 l -143.15,102.7 c -34.61,-20.57 -68.04,-42.89 -100.11,-66.97 l 40.13,-171.69 c -32.36,-28.26 -62.77,-58.69 -91.01,-91.01 l -171.7,40.13 c -24.08,-32.06 -46.41,-65.5 -66.97,-100.14 l 102.71,-143.15 c -19.06,-38.32 -35.62,-78.07 -49.45,-119.11 l -173.89,-28.61 c -9.86,-38.61 -17.62,-78.03 -23.32,-118.12 l 149.8,-93.05 c -1.4,-21.27 -2.2,-42.72 -2.2,-64.36 0,-21.62 0.8,-43.06 2.2,-64.34 l -149.78,-93.04 c 5.68,-40.1 13.44,-79.52 23.3,-118.12 l 173.89,-28.61 c 13.83,-41.04 30.39,-80.79 49.45,-119.13 l -102.71,-143.14 c 20.56,-34.62 42.89,-68.07 66.97,-100.13 l 171.7,40.14 c 28.24,-32.36 58.65,-62.77 91.01,-91.02 l -40.13,-171.69 c 32.05,-24.08 65.5,-46.41 100.11,-66.97 L 5543.42,5089 c 38.34,-19.06 78.08,-35.63 119.14,-49.46 l 28.59,-173.88 c 38.62,-9.86 78.03,-17.62 118.13,-23.32 l 93.04,149.81 c 21.27,-1.42 42.72,-2.21 64.34,-2.21 21.64,0 43.09,0.79 64.36,2.21 l 93.04,-149.81 c 40.1,5.7 79.51,13.46 118.13,23.32 l 28.61,173.88 c 41.04,13.83 80.78,30.4 119.1,49.46 l 143.17,-102.71 c 34.61,20.56 68.06,42.89 100.13,66.97 l -40.13,171.69 c 32.32,28.25 62.75,58.66 91.01,91.02 l 171.68,-40.14 c 24.08,32.06 46.41,65.51 66.97,100.13 l -102.71,143.14 c 19.04,38.34 35.64,78.09 49.45,119.13 l 173.9,28.61 c 9.84,38.6 17.61,78.02 23.3,118.12 L 6916.88,5878 c 1.42,21.28 2.2,42.72 2.2,64.34 z m -1595,-421.01 -43.32,75.05 301.21,236.45 c 18.28,-64.37 52.25,-122.1 97.56,-168.83 l -355.45,-142.67 z m 257.89,530.56 -301.21,236.43 43.32,75.06 355.47,-142.68 c -45.31,-46.72 -79.28,-104.45 -97.58,-168.81 z m 341.37,657.46 86.66,0 54.14,-379.02 c -31.21,7.81 -63.85,12.01 -97.48,12.01 -33.63,0 -66.27,-4.2 -97.48,-12.01 l 54.16,379.02 z m 86.66,-1534 -86.66,0 -54.16,379.02 c 31.21,-7.82 63.85,-12.03 97.48,-12.03 33.63,0 66.27,4.21 97.48,12.03 L 6010,5175.35 z m -43.34,601.99 c -91.11,0 -165,73.88 -165,165 0,91.14 73.89,165 165,165 91.13,0 165,-73.86 165,-165 0,-91.12 -73.87,-165 -165,-165 z M 6609.24,5521.33 6253.79,5664 c 45.31,46.72 79.28,104.46 97.56,168.81 l 301.23,-236.43 -43.34,-75.05 z m -257.89,530.56 c -18.28,64.36 -52.25,122.09 -97.56,168.81 l 355.45,142.68 43.34,-75.05 -301.23,-236.44" />
    </clipPath>
    <clipPath
       id="clipPath4053"
       clipPathUnits="userSpaceOnUse">
      <path
         id="path4055"
         d="m 2683.34,5957.87 c 0,469.42 380.56,849.95 849.96,849.95 l 0,0 0,-14.26 0,-14.34 c -226.81,0 -432.09,-91.84 -580.8,-240.54 l 0,0 c -148.68,-148.7 -240.59,-353.93 -240.59,-580.81 l 0,0 c 0,-226.89 91.91,-432.11 240.59,-580.82 l 0,0 c 148.71,-148.61 353.99,-240.53 580.8,-240.53 l 0,0 c 226.94,0 432.17,91.92 580.92,240.53 l 0,0 c 148.63,148.71 240.55,353.93 240.55,580.82 l 0,0 c 0,226.88 -91.92,432.11 -240.55,580.81 l 0,0 c -148.75,148.7 -353.98,240.54 -580.92,240.54 l 0,0 0,14.34 0,14.26 c 469.52,0 850.04,-380.53 850.04,-849.95 l 0,0 c 0,-469.41 -380.52,-849.96 -850.04,-850.05 l 0,0 c -469.4,0.09 -849.96,380.64 -849.96,850.05 l 0,0" />
    </clipPath>
    <clipPath
       id="clipPath4043"
       clipPathUnits="userSpaceOnUse">
      <path
         id="path4045"
         d="m 4485.75,5957.82 c 0,21.64 -0.79,43.09 -2.21,64.35 l 149.8,93.04 c -5.69,40.1 -13.46,79.52 -23.3,118.13 l -173.89,28.61 c -13.82,41.04 -30.41,80.8 -49.45,119.11 l 102.7,143.16 c -20.56,34.63 -42.89,68.07 -66.97,100.14 l -171.68,-40.14 c -28.27,32.33 -58.68,62.75 -91.02,91.01 l 40.14,171.68 c -32.07,24.09 -65.52,46.41 -100.14,66.98 l -143.15,-102.7 c -38.32,19.04 -78.08,35.63 -119.12,49.44 l -28.61,173.89 c -38.6,9.85 -78.03,17.61 -118.12,23.29 l -93.04,-149.78 c -21.27,1.42 -42.71,2.2 -64.35,2.2 -21.64,0 -43.07,-0.78 -64.35,-2.2 l -93.04,149.78 c -40.09,-5.68 -79.52,-13.44 -118.12,-23.29 l -28.61,-173.89 c -41.04,-13.81 -80.8,-30.4 -119.13,-49.44 l -143.14,102.7 c -34.62,-20.56 -68.06,-42.89 -100.13,-66.98 l 40.14,-171.68 c -32.35,-28.26 -62.76,-58.68 -91.02,-91.01 l -171.69,40.14 c -24.08,-32.07 -46.41,-65.51 -66.97,-100.14 l 102.7,-143.16 c -19.05,-38.31 -35.62,-78.07 -49.45,-119.11 l -173.89,-28.61 c -9.85,-38.61 -17.61,-78.03 -23.3,-118.13 l 149.8,-93.04 c -1.42,-21.26 -2.22,-42.71 -2.22,-64.35 0,-21.63 0.8,-43.07 2.22,-64.34 l -149.8,-93.05 c 5.69,-40.1 13.45,-79.51 23.3,-118.13 l 173.89,-28.59 c 13.83,-41.04 30.4,-80.8 49.45,-119.13 l -102.7,-143.15 c 20.56,-34.61 42.89,-68.06 66.96,-100.12 l 171.7,40.14 c 28.26,-32.36 58.67,-62.78 91.02,-91.02 l -40.14,-171.7 c 32.06,-24.07 65.51,-46.41 100.13,-66.97 l 143.14,102.71 c 38.33,-19.05 78.09,-35.62 119.13,-49.45 l 28.61,-173.89 c 38.6,-9.85 78.03,-17.61 118.12,-23.31 l 93.04,149.8 c 21.28,-1.41 42.71,-2.21 64.35,-2.21 21.64,0 43.08,0.8 64.35,2.21 l 93.04,-149.8 c 40.09,5.7 79.52,13.46 118.12,23.31 l 28.61,173.89 c 41.04,13.83 80.8,30.4 119.12,49.45 l 143.15,-102.71 c 34.62,20.56 68.07,42.9 100.14,66.97 l -40.14,171.7 c 32.34,28.24 62.75,58.66 91.02,91.02 l 171.68,-40.14 c 24.08,32.06 46.41,65.51 66.97,100.12 l -102.7,143.15 c 19.04,38.33 35.63,78.09 49.45,119.13 l 173.89,28.59 c 9.84,38.62 17.61,78.03 23.3,118.13 l -149.8,93.05 c 1.42,21.27 2.21,42.71 2.21,64.34 z m -952.41,-200 c -110.45,0 -200,89.54 -200,200 0,96.75 68.71,177.45 160,195.99 l 0,76.39 80,0 0,-76.39 c 91.29,-18.54 160,-99.24 160,-195.99 0,-110.46 -89.55,-200 -200,-200" />
    </clipPath>
    <clipPath
       id="clipPath4031"
       clipPathUnits="userSpaceOnUse">
      <path
         id="path4033"
         d="m 2052.41,5978.84 c 0,21.64 -0.78,43.09 -2.2,64.34 l 149.79,93.05 c -5.68,40.1 -13.46,79.52 -23.3,118.13 l -173.89,28.61 c -13.81,41.03 -30.41,80.79 -49.45,119.11 l 102.7,143.15 c -20.55,34.63 -42.88,68.07 -66.97,100.14 l -171.68,-40.14 c -28.26,32.34 -58.68,62.76 -91.02,91.02 l 40.14,171.68 c -32.07,24.08 -65.51,46.41 -100.14,66.97 l -143.15,-102.69 c -38.32,19.03 -78.07,35.62 -119.11,49.43 l -28.61,173.9 c -38.61,9.84 -78.03,17.6 -118.13,23.29 l -93.03,-149.79 c -21.27,1.43 -42.72,2.21 -64.36,2.21 -21.63,0 -43.07,-0.78 -64.35,-2.21 l -93.033,149.79 c -40.097,-5.69 -79.519,-13.45 -118.125,-23.29 l -28.601,-173.9 c -41.047,-13.81 -80.801,-30.4 -119.133,-49.43 L 533.613,6934.9 c -34.617,-20.55 -68.054,-42.89 -100.129,-66.97 l 40.141,-171.68 c -32.355,-28.26 -62.766,-58.68 -91.02,-91.02 l -171.687,40.14 c -24.082,-32.07 -46.414,-65.51 -66.973,-100.14 L 246.648,6402.08 C 227.598,6363.76 211.023,6324 197.195,6282.97 L 23.3125,6254.36 C 13.457,6215.75 5.69141,6176.33 0,6136.23 l 149.805,-93.05 c -1.414,-21.25 -2.215,-42.7 -2.215,-64.34 0,-21.63 0.801,-43.08 2.215,-64.35 L 0.0117188,5821.45 C 5.69141,5781.35 13.457,5741.93 23.3125,5703.32 l 173.8825,-28.59 c 13.828,-41.05 30.403,-80.8 49.453,-119.13 L 143.945,5412.44 c 20.559,-34.61 42.891,-68.05 66.961,-100.12 l 171.699,40.14 c 28.254,-32.35 58.665,-62.77 91.02,-91.01 l -40.141,-171.7 c 32.063,-24.07 65.512,-46.41 100.129,-66.98 l 143.145,102.72 c 38.332,-19.05 78.086,-35.63 119.133,-49.45 l 28.601,-173.89 c 38.606,-9.85 78.028,-17.62 118.125,-23.31 l 93.033,149.79 c 21.28,-1.4 42.72,-2.2 64.35,-2.2 21.64,0 43.09,0.8 64.36,2.2 l 93.03,-149.79 c 40.1,5.69 79.52,13.46 118.13,23.31 l 28.61,173.89 c 41.04,13.82 80.79,30.4 119.11,49.45 l 143.15,-102.72 c 34.63,20.57 68.07,42.91 100.14,66.98 l -40.14,171.7 c 32.34,28.24 62.76,58.66 91.02,91.01 l 171.68,-40.14 c 24.09,32.07 46.42,65.51 66.97,100.12 l -102.7,143.16 c 19.04,38.33 35.64,78.08 49.45,119.13 l 173.89,28.59 c 9.84,38.61 17.62,78.03 23.3,118.13 l -149.79,93.04 c 1.42,21.27 2.2,42.72 2.2,64.35 z m -952.41,-750 c -414.219,0 -750,335.79 -750,750 0,414.21 335.781,750 750,750 414.21,0 750,-335.79 750,-750 0,-414.21 -335.79,-750 -750,-750" />
    </clipPath>
    <clipPath
       id="clipPath4021"
       clipPathUnits="userSpaceOnUse">
      <path
         id="path4023"
         d="m 9362.32,8400 c 0,13.39 -0.44,26.69 -0.97,39.91 l 138.65,37.66 c -2.66,37.03 -7.07,73.61 -13.24,109.57 l -143.5,3.5 c -5.31,26.25 -11.85,52.13 -19.33,77.57 l 125.78,69.75 c -11.41,35.24 -24.61,69.57 -39.3,103.19 l -140.33,-30.92 c -11.49,24.18 -24.03,47.64 -37.4,70.65 l 105.37,97.71 c -19.51,31.36 -40.57,61.66 -63.11,90.78 l -128.75,-63.46 c -16.89,20.66 -34.69,40.45 -53.26,59.59 l 78.87,120.09 c -26.41,25.7 -54.03,50.15 -82.87,73.16 l -109.79,-92.31 c -21.27,15.99 -43.36,31.01 -66.01,45.3 l 47.77,135.28 c -31.68,18.69 -64.4,35.86 -97.97,51.41 l -84.41,-115.86 c -24.48,10.43 -49.57,19.69 -75.04,28.22 l 13.88,142.74 c -35.15,10.51 -71.01,19.32 -107.48,26.33 l -54.2,-132.84 c -26.19,4.31 -52.73,7.28 -79.55,9.44 l -20.82,142.11 c -18.34,0.89 -36.77,1.43 -55.33,1.43 -18.53,0 -36.99,-0.54 -55.35,-1.43 l -20.8,-142.11 c -26.82,-2.16 -53.38,-5.13 -79.51,-9.44 l -54.26,132.84 c -36.51,-7.01 -72.33,-15.82 -107.42,-26.33 l 13.88,-142.74 c -25.47,-8.53 -50.56,-17.79 -75.04,-28.22 l -84.41,115.86 c -33.71,-15.55 -66.33,-32.72 -98.05,-51.41 l 47.8,-135.28 c -22.66,-14.29 -44.69,-29.21 -66.02,-45.3 l -109.73,92.31 c -28.88,-23.01 -56.6,-47.46 -82.91,-73.16 l 78.81,-120.09 c -18.47,-19.14 -36.33,-38.93 -53.16,-59.59 l -128.85,63.46 c -22.44,-29.12 -43.53,-59.42 -63.01,-90.78 l 105.34,-97.71 c -13.34,-23.01 -25.92,-46.47 -37.43,-70.65 l -140.37,30.92 c -14.69,-33.62 -27.79,-67.95 -39.24,-103.19 l 125.77,-69.75 c -7.43,-25.44 -14.01,-51.32 -19.34,-77.57 l -143.48,-3.5 c -6.23,-35.96 -10.64,-72.54 -13.2,-109.57 l 138.61,-37.66 c -0.54,-13.22 -0.99,-26.52 -0.99,-39.91 0,-13.39 0.45,-26.7 0.99,-40 L 7300,8322.43 c 2.56,-37.12 6.97,-73.61 13.2,-109.66 l 143.48,-3.5 c 5.33,-26.25 11.91,-52.13 19.34,-77.57 l -125.77,-69.75 c 11.45,-35.24 24.55,-69.57 39.24,-103.19 l 140.37,30.92 c 11.51,-24.18 24.09,-47.64 37.43,-70.64 l -105.34,-97.71 c 19.48,-31.37 40.57,-61.66 63.01,-90.78 l 128.85,63.54 c 16.83,-20.67 34.69,-40.54 53.16,-59.68 l -78.81,-120.08 c 26.31,-25.72 54.03,-50.07 82.91,-73.17 l 109.73,92.32 c 21.33,-16.01 43.36,-31.02 66.02,-45.32 l -47.8,-135.27 c 31.72,-18.7 64.34,-35.86 98.05,-51.33 l 84.41,115.87 c 24.48,-10.43 49.57,-19.77 75.04,-28.22 l -13.88,-142.82 c 35.09,-10.53 70.91,-19.34 107.42,-26.34 l 54.26,132.84 c 26.13,-4.23 52.69,-7.27 79.51,-9.43 l 20.8,-142.11 c 18.36,-0.9 36.82,-1.35 55.35,-1.35 18.56,0 36.99,0.45 55.33,1.35 l 20.82,142.11 c 26.82,2.16 53.36,5.2 79.55,9.43 l 54.2,-132.84 c 36.47,7 72.33,15.81 107.48,26.34 l -13.88,142.82 c 25.47,8.45 50.56,17.79 75.04,28.22 l 84.41,-115.87 c 33.57,15.47 66.29,32.63 97.97,51.33 l -47.77,135.27 c 22.65,14.3 44.74,29.31 66.01,45.32 l 109.79,-92.32 c 28.84,23.1 56.46,47.45 82.87,73.17 l -78.87,120.08 c 18.57,19.14 36.37,39.01 53.26,59.68 l 128.75,-63.54 c 22.54,29.12 43.6,59.41 63.11,90.78 l -105.37,97.71 c 13.37,23 25.91,46.46 37.4,70.64 l 140.33,-30.92 c 14.69,33.62 27.89,67.95 39.3,103.19 l -125.78,69.75 c 7.48,25.44 14.02,51.32 19.33,77.57 l 143.5,3.5 c 6.17,36.05 10.58,72.54 13.24,109.66 L 9361.35,8360 c 0.53,13.3 0.97,26.61 0.97,40 z m -274.84,455.98 -582.71,-303.95 c -8.05,5.51 -16.61,10.29 -25.47,14.49 l -28.17,656.74 c 265.75,-16.27 497.42,-158.23 636.35,-367.28 z m -738.63,367.28 -28.15,-656.71 c -8.88,-4.21 -17.46,-8.98 -25.5,-14.51 l -582.7,303.94 c 138.95,209.05 370.63,351.01 636.35,367.28 z M 7661.35,8032.58 C 7606.19,8143.25 7575,8267.95 7575,8400 c 0,132.04 31.19,256.75 86.35,367.41 l 554.29,-352.52 c -0.39,-4.92 -0.74,-9.86 -0.74,-14.89 0,-5.03 0.35,-9.97 0.74,-14.9 l -554.29,-352.52 z m 51.15,-88.56 582.66,303.9 c 8.06,-5.54 16.64,-10.32 25.54,-14.55 l 28.15,-656.64 c -265.72,16.27 -497.4,158.23 -636.35,367.29 z M 8295,8400 c 0,57.99 47.01,105 105,105 57.99,0 105,-47.01 105,-105 0,-58 -47.01,-105 -105,-105 -57.99,0 -105,47 -105,105 z m 156.13,-823.27 28.15,656.67 c 8.9,4.23 17.48,9.01 25.52,14.54 l 582.68,-303.92 C 8948.55,7734.96 8716.88,7593 8451.13,7576.73 z m 687.52,455.86 -554.35,352.53 c 0.39,4.92 0.76,9.85 0.76,14.88 0,5.02 -0.37,9.95 -0.76,14.88 l 554.35,352.53 C 9193.81,8656.75 9225,8532.04 9225,8400 c 0,-132.05 -31.19,-256.75 -86.35,-367.41" />
    </clipPath>
    <clipPath
       id="clipPath4009"
       clipPathUnits="userSpaceOnUse">
      <path
         id="path4011"
         d="m 6369.88,8904.11 c -112.37,-64.88 -150.86,-208.59 -85.99,-320.97 64.88,-112.39 208.57,-150.87 320.95,-85.99 112.39,64.88 150.9,208.57 86,320.96 -64.86,112.37 -208.57,150.87 -320.96,86 z m 221.37,-383.4 c -99,-57.16 -225.62,-23.23 -282.77,75.77 -57.16,99 -23.23,225.59 75.76,282.75 99,57.17 225.6,23.26 282.77,-75.75 57.15,-99.01 23.22,-225.62 -75.76,-282.77" />
    </clipPath>
    <clipPath
       id="clipPath3999"
       clipPathUnits="userSpaceOnUse">
      <path
         id="path4001"
         d="m 5328.51,8302.86 c -112.4,-64.89 -150.89,-208.59 -86.01,-320.97 64.88,-112.39 208.59,-150.87 320.97,-85.99 112.36,64.88 150.88,208.56 85.99,320.96 -64.88,112.37 -208.59,150.87 -320.95,86 z m 221.35,-383.4 c -99.01,-57.16 -225.61,-23.24 -282.77,75.77 -57.17,99.01 -23.24,225.59 75.77,282.75 99.01,57.17 225.61,23.26 282.76,-75.75 57.17,-99.01 23.24,-225.62 -75.76,-282.77" />
    </clipPath>
    <clipPath
       id="clipPath3989"
       clipPathUnits="userSpaceOnUse">
      <path
         id="path3991"
         d="m 6604.84,8302.86 c -112.38,64.87 -256.09,26.37 -320.95,-86 -64.89,-112.4 -26.38,-256.08 85.99,-320.96 112.39,-64.88 256.08,-26.39 320.96,85.99 64.88,112.38 26.39,256.09 -86,320.97 z m 61.41,-307.63 c -57.15,-99.01 -183.77,-132.93 -282.75,-75.78 -99,57.16 -132.92,183.77 -75.77,282.78 57.15,99 183.75,132.91 282.76,75.75 99,-57.16 132.93,-183.75 75.76,-282.75" />
    </clipPath>
    <clipPath
       id="clipPath3979"
       clipPathUnits="userSpaceOnUse">
      <path
         id="path3981"
         d="m 5328.51,8497.15 c 112.36,-64.88 256.05,-26.4 320.95,85.99 64.89,112.38 26.37,256.09 -85.99,320.97 -112.38,64.87 -256.09,26.37 -320.97,-86 -64.9,-112.4 -26.39,-256.08 86.01,-320.96 z m -62.18,306.33 c 57.18,99 183.76,132.91 282.76,75.75 99.01,-57.16 132.95,-183.75 75.79,-282.75 -57.17,-99.01 -183.77,-132.93 -282.77,-75.78 -99,57.16 -132.93,183.77 -75.78,282.78" />
    </clipPath>
    <clipPath
       id="clipPath3969"
       clipPathUnits="userSpaceOnUse">
      <path
         id="path3971"
         d="m 5966.67,8033.75 c -129.8,0 -235,-105.21 -235,-235 0,-129.79 105.2,-235 235,-235 129.79,0 235,105.21 235,235 0,129.79 -105.21,235 -235,235 z m -0.74,-442 c -114.32,0 -207.01,92.68 -207.01,207 0,114.32 92.69,207 207.01,207 114.32,0 206.99,-92.68 206.99,-207 0,-114.32 -92.67,-207 -206.99,-207" />
    </clipPath>
    <clipPath
       id="clipPath3959"
       clipPathUnits="userSpaceOnUse">
      <path
         id="path3961"
         d="m 5966.67,9236.25 c -129.78,0 -235,-105.21 -235,-235 0,-129.79 105.22,-235 235,-235 129.79,0 235,105.21 235,235 0,129.79 -105.21,235 -235,235 z m -0.74,-442 c -114.32,0 -207.01,92.68 -207.01,207 0,114.32 92.69,207 207.01,207 114.32,0 206.99,-92.68 206.99,-207 0,-114.32 -92.67,-207 -206.99,-207" />
    </clipPath>
    <clipPath
       id="clipPath3949"
       clipPathUnits="userSpaceOnUse">
      <path
         id="path3951"
         d="m 6928.98,8400 c 0,13.39 -0.44,26.7 -0.99,39.91 l 138.67,37.66 c -2.66,37.04 -7.09,73.61 -13.26,109.57 l -143.48,3.5 c -5.31,26.25 -11.85,52.13 -19.33,77.57 l 125.78,69.75 c -11.41,35.24 -24.61,69.57 -39.3,103.2 l -140.33,-30.93 c -11.49,24.18 -24.03,47.64 -37.4,70.65 l 105.35,97.71 c -19.51,31.36 -40.55,61.66 -63.09,90.78 l -128.75,-63.46 c -16.89,20.67 -34.71,40.45 -53.26,59.59 l 78.87,120.09 c -26.41,25.7 -54.05,50.15 -82.87,73.16 l -109.79,-92.31 c -21.27,16 -43.36,31.01 -66.01,45.3 l 47.77,135.28 c -31.68,18.7 -64.42,35.87 -97.99,51.41 l -84.39,-115.86 c -24.47,10.43 -49.56,19.69 -75.04,28.22 l 13.9,142.74 c -35.16,10.52 -71.02,19.33 -107.49,26.34 l -54.21,-132.85 c -26.18,4.31 -52.72,7.28 -79.54,9.44 l -20.82,142.11 c -18.34,0.89 -36.77,1.43 -55.33,1.43 -18.53,0 -37.01,-0.54 -55.35,-1.43 l -20.82,-142.11 c -26.82,-2.16 -53.36,-5.13 -79.5,-9.44 l -54.25,132.85 c -36.5,-7.01 -72.32,-15.82 -107.44,-26.34 l 13.89,-142.74 c -25.45,-8.53 -50.57,-17.79 -75.02,-28.22 l -84.42,115.86 c -33.71,-15.54 -66.33,-32.71 -98.06,-51.41 l 47.8,-135.28 c -22.65,-14.29 -44.68,-29.21 -66,-45.3 l -109.73,92.31 c -28.88,-23.01 -56.6,-47.46 -82.93,-73.16 l 78.83,-120.09 c -18.47,-19.14 -36.33,-38.92 -53.18,-59.59 l -128.83,63.46 c -22.44,-29.12 -43.53,-59.42 -63.01,-90.78 l 105.32,-97.71 c -13.34,-23.01 -25.9,-46.47 -37.41,-70.65 l -140.37,30.93 c -14.69,-33.63 -27.81,-67.96 -39.26,-103.2 l 125.79,-69.75 c -7.45,-25.44 -14.03,-51.32 -19.34,-77.57 l -143.48,-3.5 c -6.23,-35.96 -10.64,-72.53 -13.2,-109.57 l 138.61,-37.66 c -0.54,-13.21 -0.99,-26.52 -0.99,-39.91 0,-13.39 0.45,-26.7 0.99,-40 l -138.61,-37.57 c 2.56,-37.12 6.97,-73.61 13.2,-109.66 l 143.48,-3.5 c 5.31,-26.25 11.89,-52.13 19.34,-77.57 l -125.79,-69.75 c 11.45,-35.24 24.57,-69.57 39.26,-103.19 l 140.37,30.92 c 11.51,-24.18 24.07,-47.64 37.41,-70.64 l -105.32,-97.71 c 19.48,-31.37 40.57,-61.66 63.01,-90.78 l 128.83,63.55 c 16.85,-20.68 34.71,-40.55 53.18,-59.69 l -78.83,-120.08 c 26.33,-25.72 54.05,-50.07 82.93,-73.17 l 109.73,92.32 c 21.32,-16.01 43.35,-31.02 66,-45.32 l -47.8,-135.27 c 31.73,-18.69 64.35,-35.86 98.06,-51.33 l 84.42,115.87 c 24.45,-10.43 49.57,-19.77 75.02,-28.22 l -13.89,-142.82 c 35.12,-10.53 70.94,-19.34 107.44,-26.34 l 54.25,132.84 c 26.14,-4.22 52.68,-7.27 79.5,-9.43 l 20.82,-142.11 c 18.34,-0.9 36.82,-1.35 55.35,-1.35 18.56,0 36.99,0.45 55.33,1.35 l 20.82,142.11 c 26.82,2.16 53.36,5.21 79.54,9.43 l 54.21,-132.84 c 36.47,7 72.33,15.81 107.49,26.34 l -13.9,142.82 c 25.48,8.45 50.57,17.79 75.04,28.22 l 84.39,-115.87 c 33.57,15.47 66.31,32.64 97.99,51.33 l -47.77,135.27 c 22.65,14.3 44.74,29.31 66.01,45.32 l 109.79,-92.32 c 28.82,23.1 56.46,47.45 82.87,73.17 l -78.87,120.08 c 18.55,19.14 36.37,39.01 53.26,59.69 l 128.75,-63.55 c 22.54,29.12 43.58,59.41 63.09,90.78 l -105.35,97.71 c 13.37,23 25.91,46.46 37.4,70.64 l 140.33,-30.92 c 14.69,33.62 27.89,67.95 39.3,103.19 l -125.78,69.75 c 7.48,25.44 14.02,51.32 19.33,77.57 l 143.48,3.5 c 6.17,36.05 10.6,72.54 13.26,109.66 L 6927.99,8360 c 0.55,13.3 0.99,26.61 0.99,40 z m -1677.87,413.13 c 62.14,107.61 199.76,144.48 307.37,82.35 107.61,-62.12 144.48,-199.74 82.35,-307.35 -62.13,-107.63 -199.74,-144.49 -307.35,-82.36 -107.62,62.13 -144.5,199.73 -82.37,307.36 z m 307.37,-908.6 c -107.61,-62.14 -245.22,-25.29 -307.37,82.35 -62.13,107.6 -25.25,245.22 82.37,307.36 107.61,62.12 245.22,25.25 307.35,-82.36 62.15,-107.63 25.26,-245.23 -82.35,-307.35 z m 408.19,-330.78 c -124.28,0 -225,100.74 -225,225 0,124.26 100.72,225 225,225 124.26,0 225,-100.74 225,-225 0,-124.26 -100.74,-225 -225,-225 z m -125,826.25 c 0,69.04 55.96,125 125,125 69.04,0 125,-55.96 125,-125 0,-69.03 -55.96,-125 -125,-125 -69.04,0 -125,55.97 -125,125 z m 125,376.25 c -124.28,0 -225,100.74 -225,225 0,124.26 100.72,225 225,225 124.26,0 225,-100.74 225,-225 0,-124.26 -100.74,-225 -225,-225 z m 715.56,-789.37 c -62.15,-107.63 -199.75,-144.49 -307.37,-82.36 -107.6,62.13 -144.48,199.73 -82.35,307.36 62.12,107.61 199.74,144.48 307.35,82.35 107.62,-62.12 144.5,-199.74 82.37,-307.35 z m -82.37,518.9 c -107.61,-62.14 -245.21,-25.28 -307.35,82.35 -62.13,107.61 -25.25,245.23 82.35,307.36 107.62,62.12 245.24,25.25 307.37,-82.36 62.13,-107.63 25.25,-245.23 -82.37,-307.35" />
    </clipPath>
    <clipPath
       id="clipPath3937"
       clipPathUnits="userSpaceOnUse">
      <path
         id="path3939"
         d="m 3033.34,8400.02 c 0,276.13 223.85,499.98 499.96,499.98 l 0,0 0,-8.39 0,-8.43 c -133.41,0 -254.16,-54.03 -341.64,-141.5 l 0,0 c -87.45,-87.48 -141.52,-208.2 -141.52,-341.66 l 0,0 c 0,-133.46 54.07,-254.18 141.52,-341.64 l 0,0 c 87.48,-87.43 208.23,-141.5 341.64,-141.5 l 0,0 c 133.5,0 254.23,54.07 341.73,141.5 l 0,0 c 87.42,87.46 141.51,208.18 141.51,341.64 l 0,0 c 0,133.46 -54.09,254.18 -141.51,341.66 l 0,0 c -87.5,87.47 -208.23,141.5 -341.73,141.5 l 0,0 0,8.43 0,8.39 c 276.2,0 500.04,-223.85 500.04,-499.98 l 0,0 c 0,-276.12 -223.84,-499.97 -500.04,-500.02 l 0,0 c -276.11,0.05 -499.96,223.9 -499.96,500.02 l 0,0" />
    </clipPath>
    <clipPath
       id="clipPath3927"
       clipPathUnits="userSpaceOnUse">
      <path
         id="path3929"
         d="m 4495.67,8400 c 0,13.39 -0.45,26.7 -0.99,39.91 l 138.66,37.67 c -2.66,37.03 -7.07,73.6 -13.25,109.56 l -143.48,3.5 c -5.32,26.25 -11.86,52.13 -19.34,77.57 l 125.77,69.76 c -11.4,35.23 -24.6,69.56 -39.29,103.19 l -140.33,-30.93 c -11.49,24.18 -24.02,47.64 -37.4,70.65 l 105.36,97.71 c -19.51,31.36 -40.56,61.66 -63.09,90.78 l -128.75,-63.46 c -16.9,20.67 -34.7,40.45 -53.27,59.59 l 78.86,120.09 c -26.4,25.71 -54.02,50.15 -82.87,73.17 l -109.78,-92.31 c -21.27,15.99 -43.35,31 -66.02,45.3 l 47.77,135.27 c -31.68,18.7 -64.39,35.87 -97.96,51.42 l -84.42,-115.86 c -24.46,10.42 -49.57,19.68 -75.03,28.21 l 13.89,142.75 c -35.16,10.51 -71.03,19.32 -107.48,26.34 l -54.21,-132.86 c -26.19,4.32 -52.73,7.28 -79.54,9.44 l -20.82,142.11 c -18.35,0.89 -36.78,1.43 -55.34,1.43 -18.53,0 -37,-0.54 -55.35,-1.43 l -20.81,-142.11 c -26.81,-2.16 -53.37,-5.12 -79.5,-9.44 l -54.26,132.86 c -36.5,-7.02 -72.32,-15.83 -107.43,-26.34 l 13.89,-142.75 c -25.47,-8.53 -50.57,-17.79 -75.04,-28.21 l -84.41,115.86 c -33.71,-15.55 -66.33,-32.72 -98.05,-51.42 l 47.8,-135.27 c -22.66,-14.3 -44.7,-29.22 -66.02,-45.3 l -109.73,92.31 c -28.88,-23.02 -56.59,-47.46 -82.91,-73.17 l 78.82,-120.09 c -18.48,-19.14 -36.33,-38.92 -53.18,-59.59 l -128.84,63.46 c -22.44,-29.12 -43.53,-59.42 -63,-90.78 l 105.32,-97.71 c -13.34,-23.01 -25.92,-46.47 -37.41,-70.65 l -140.37,30.93 c -14.7,-33.63 -27.8,-67.96 -39.25,-103.19 l 125.77,-69.76 c -7.43,-25.44 -14.01,-51.32 -19.34,-77.57 l -143.48,-3.5 c -6.22,-35.96 -10.64,-72.53 -13.2,-109.56 l 138.62,-37.67 c -0.55,-13.21 -1,-26.52 -1,-39.91 0,-13.39 0.45,-26.69 1,-40 l -138.62,-37.57 c 2.56,-37.12 6.98,-73.61 13.2,-109.66 l 143.48,-3.5 c 5.33,-26.24 11.91,-52.13 19.34,-77.57 l -125.77,-69.75 c 11.45,-35.24 24.55,-69.57 39.25,-103.19 l 140.37,30.93 c 11.49,-24.19 24.07,-47.65 37.41,-70.65 l -105.32,-97.7 c 19.47,-31.38 40.56,-61.67 63,-90.79 l 128.84,63.55 c 16.85,-20.67 34.7,-40.55 53.18,-59.69 l -78.82,-120.08 c 26.32,-25.7 54.03,-50.07 82.91,-73.17 l 109.73,92.32 c 21.32,-16.01 43.36,-31.02 66.02,-45.3 l -47.8,-135.28 c 31.72,-18.7 64.34,-35.87 98.05,-51.33 l 84.41,115.86 c 24.47,-10.43 49.57,-19.77 75.04,-28.22 l -13.89,-142.82 c 35.11,-10.52 70.93,-19.33 107.43,-26.34 l 54.26,132.85 c 26.13,-4.23 52.69,-7.28 79.5,-9.44 l 20.81,-142.1 c 18.35,-0.9 36.82,-1.36 55.35,-1.36 18.56,0 36.99,0.46 55.34,1.36 l 20.82,142.1 c 26.81,2.16 53.35,5.21 79.54,9.44 l 54.21,-132.85 c 36.45,7.01 72.32,15.82 107.48,26.34 l -13.89,142.82 c 25.46,8.45 50.57,17.79 75.03,28.22 l 84.42,-115.86 c 33.57,15.46 66.28,32.63 97.96,51.33 l -47.77,135.28 c 22.67,14.28 44.75,29.29 66.02,45.3 l 109.78,-92.32 c 28.85,23.1 56.47,47.47 82.87,73.17 l -78.86,120.08 c 18.57,19.14 36.37,39.02 53.27,59.69 l 128.75,-63.55 c 22.53,29.12 43.58,59.41 63.09,90.79 l -105.36,97.7 c 13.38,23 25.91,46.46 37.4,70.65 l 140.33,-30.93 c 14.69,33.62 27.89,67.95 39.29,103.19 l -125.77,69.75 c 7.48,25.44 14.02,51.33 19.34,77.57 l 143.48,3.5 c 6.18,36.05 10.59,72.54 13.25,109.66 L 4494.68,8360 c 0.54,13.31 0.99,26.61 0.99,40 z m -962.33,850 c 91.29,0 179.16,-14.55 261.59,-41.2 l -25.98,-117.89 c -73.95,25.22 -153.13,39.09 -235.61,39.09 -81.82,0 -160.39,-13.66 -233.82,-38.48 l -26.39,117.76 c 82.03,26.35 169.42,40.72 260.21,40.72 z m 185,-850 c 0,-20.18 -3.34,-39.54 -9.32,-57.72 -24.33,-73.65 -93.77,-126.9 -175.7,-126.9 -73.17,0 -136.23,42.48 -166.27,103.95 -11.87,24.41 -18.71,51.71 -18.71,80.67 0,27.95 6.37,54.36 17.46,78.11 29.53,62.83 93.34,106.43 167.52,106.43 82.01,0 151.52,-53.29 175.78,-127.03 5.92,-18.12 9.24,-37.41 9.24,-57.51 z m -754.57,630.88 89.16,-81.49 c -118.68,-103.85 -203.46,-245.41 -235.45,-406.1 l -115.03,35.99 c 38.09,177.41 131.45,334.27 261.32,451.6 z m -1.12,-1260.79 c -129.65,117.53 -222.73,274.56 -260.54,452.06 l 115.03,36.44 c 31.59,-160.8 115.97,-302.58 234.34,-406.72 l -88.83,-81.78 z M 3533.34,7550 c -91.3,0 -179.16,14.56 -261.6,41.2 l 25.98,117.89 c 73.94,-25.21 153.14,-39.09 235.62,-39.09 81.8,0 160.37,13.66 233.81,38.49 l 26.39,-117.76 C 3711.51,7564.38 3624.12,7550 3533.34,7550 z m 569.57,219.12 -89.16,81.5 c 118.66,103.85 203.44,245.41 235.43,406.09 l 115.04,-35.99 c -38.09,-177.41 -131.45,-334.27 -261.31,-451.6 z m 146.61,772.3 c -31.57,160.81 -115.96,302.58 -234.34,406.72 l 88.84,81.78 c 129.65,-117.53 222.74,-274.57 260.53,-452.07 l -115.03,-36.43" />
    </clipPath>
    <clipPath
       id="clipPath3917"
       clipPathUnits="userSpaceOnUse">
      <path
         id="path3919"
         d="m 219.078,8400.04 c 0,485.19 394.402,878.53 880.882,878.53 l 0,0 0,-14.74 0,-14.83 c -235.062,0 -447.815,-94.92 -601.929,-248.62 l 0,0 C 343.949,8846.68 248.688,8634.55 248.688,8400.04 l 0,0 c 0,-234.5 95.261,-446.63 249.343,-600.33 l 0,0 c 154.114,-153.6 366.867,-248.62 601.929,-248.62 l 0,0 c 235.19,0 447.9,95.02 602.06,248.62 l 0,0 c 154.03,153.7 249.29,365.83 249.29,600.33 l 0,0 c 0,234.51 -95.26,446.64 -249.29,600.34 l 0,0 C 1547.86,9154.08 1335.15,9249 1099.96,9249 l 0,0 0,14.83 0,14.74 c 486.6,0 880.96,-393.34 880.96,-878.53 l 0,0 c 0,-485.18 -394.36,-878.52 -880.96,-878.61 l 0,0 c -486.48,0.09 -880.882,393.43 -880.882,878.61 l 0,0" />
    </clipPath>
    <clipPath
       id="clipPath3907"
       clipPathUnits="userSpaceOnUse">
      <path
         id="path3909"
         d="m 2062.33,8400 c 0,13.39 -0.45,26.69 -0.99,39.91 l 138.66,37.66 c -2.66,37.03 -7.07,73.61 -13.25,109.57 l -143.48,3.5 c -5.32,26.25 -11.85,52.13 -19.34,77.57 l 125.78,69.75 c -11.4,35.24 -24.61,69.57 -39.3,103.19 l -140.33,-30.92 c -11.49,24.18 -24.02,47.64 -37.4,70.65 l 105.36,97.71 c -19.51,31.36 -40.56,61.66 -63.09,90.78 l -128.75,-63.46 c -16.9,20.66 -34.7,40.45 -53.27,59.59 l 78.87,120.09 c -26.41,25.7 -54.03,50.15 -82.87,73.16 l -109.79,-92.31 c -21.26,15.99 -43.35,31.01 -66.01,45.3 l 47.77,135.28 c -31.68,18.69 -64.4,35.86 -97.97,51.41 l -84.41,-115.86 c -24.47,10.43 -49.57,19.69 -75.04,28.22 l 13.89,142.74 c -35.15,10.51 -71.02,19.32 -107.48,26.33 l -54.21,-132.84 c -26.19,4.31 -52.73,7.28 -79.54,9.44 l -20.82,142.11 c -18.35,0.89 -36.77,1.43 -55.34,1.43 -18.52,0 -37,-0.54 -55.34,-1.43 l -20.82,-142.11 c -26.812,-2.16 -53.359,-5.13 -79.5,-9.44 l -54.254,132.84 c -36.503,-7.01 -72.328,-15.82 -107.433,-26.33 l 13.887,-142.74 c -25.465,-8.53 -50.567,-17.79 -75.036,-28.22 l -84.41,115.86 c -33.703,-15.55 -66.332,-32.72 -98.054,-51.41 l 47.804,-135.28 c -22.664,-14.29 -44.695,-29.21 -66.011,-45.3 l -109.739,92.31 c -28.883,-23.01 -56.597,-47.46 -82.914,-73.16 l 78.817,-120.09 c -18.477,-19.14 -36.325,-38.93 -53.172,-59.59 l -128.84,63.46 c -22.445,-29.12 -43.535,-59.42 -63,-90.78 l 105.316,-97.71 c -13.34,-23.01 -25.914,-46.47 -37.406,-70.65 L 89.4961,8841.15 C 74.8047,8807.53 61.6953,8773.2 50.25,8737.96 l 125.77,-69.75 c -7.43,-25.44 -14.012,-51.32 -19.336,-77.57 l -143.4809,-3.5 C 6.98047,8551.18 2.56641,8514.6 0,8477.57 l 138.617,-37.66 c -0.543,-13.22 -0.988,-26.52 -0.988,-39.91 0,-13.39 0.445,-26.7 0.988,-40 L 0,8322.43 c 2.56641,-37.12 6.98047,-73.61 13.2031,-109.66 l 143.4809,-3.5 c 5.324,-26.25 11.906,-52.13 19.336,-77.57 L 50.25,8061.95 c 11.4453,-35.24 24.5547,-69.57 39.2461,-103.19 l 140.3789,30.92 c 11.492,-24.18 24.066,-47.64 37.406,-70.64 l -105.316,-97.71 c 19.465,-31.37 40.555,-61.66 63,-90.78 l 128.84,63.54 c 16.847,-20.67 34.695,-40.54 53.172,-59.68 L 328.16,7614.33 c 26.317,-25.72 54.031,-50.07 82.914,-73.17 l 109.739,92.32 c 21.316,-16.01 43.347,-31.02 66.011,-45.32 L 539.02,7452.89 c 31.722,-18.7 64.351,-35.86 98.054,-51.33 l 84.41,115.87 c 24.469,-10.43 49.571,-19.77 75.036,-28.22 l -13.887,-142.82 c 35.105,-10.53 70.93,-19.34 107.433,-26.34 l 54.254,132.84 c 26.141,-4.23 52.688,-7.27 79.5,-9.43 l 20.82,-142.11 c 18.34,-0.9 36.82,-1.35 55.34,-1.35 18.57,0 36.99,0.45 55.34,1.35 l 20.82,142.11 c 26.81,2.16 53.35,5.2 79.54,9.43 l 54.21,-132.84 c 36.46,7 72.33,15.81 107.48,26.34 l -13.89,142.82 c 25.47,8.45 50.57,17.79 75.04,28.22 l 84.41,-115.87 c 33.57,15.47 66.29,32.63 97.97,51.33 l -47.77,135.27 c 22.66,14.3 44.75,29.31 66.01,45.32 l 109.79,-92.32 c 28.84,23.1 56.46,47.45 82.87,73.17 l -78.87,120.08 c 18.57,19.14 36.37,39.01 53.27,59.68 l 128.75,-63.54 c 22.53,29.12 43.58,59.41 63.09,90.78 l -105.36,97.71 c 13.38,23 25.91,46.46 37.4,70.64 l 140.33,-30.92 c 14.69,33.62 27.9,67.95 39.3,103.19 l -125.78,69.75 c 7.49,25.44 14.02,51.32 19.34,77.57 l 143.48,3.5 c 6.18,36.05 10.59,72.54 13.25,109.66 L 2061.34,8360 c 0.54,13.3 0.99,26.61 0.99,40 z m -962.35,-184.62 c -102.207,0 -185.082,82.7 -185.082,184.62 0,101.93 82.875,184.53 185.082,184.53 102.16,0 185.08,-82.6 185.08,-184.53 0,-101.92 -82.92,-184.62 -185.08,-184.62" />
    </clipPath>
  </defs>
  <sodipodi:namedview
     id="base"
     pagecolor="#ffffff"
     bordercolor="#666666"
     borderopacity="1.0"
     inkscape:pageopacity="0.0"
     inkscape:pageshadow="2"
     inkscape:zoom="0.24748737"
     inkscape:cx="319.22628"
     inkscape:cy="152.60762"
     inkscape:document-units="px"
     inkscape:current-layer="layer2"
     showgrid="false"
     inkscape:window-width="1600"
     inkscape:window-height="878"
     inkscape:window-x="1144"
     inkscape:window-y="-8"
     inkscape:window-maximized="1" />
  <metadata
     id="metadata7">
    <rdf:RDF>
      <cc:Work
         rdf:about="">
        <dc:format>image/svg+xml</dc:format>
        <dc:type
           rdf:resource="http://purl.org/dc/dcmitype/StillImage" />
        <dc:title></dc:title>
      </cc:Work>
    </rdf:RDF>
  </metadata>
  <g
     inkscape:groupmode="layer"
     id="layer2"
     inkscape:label="Wrench"
     style="display:inline" />
  <g
     inkscape:label="Ring"
     inkscape:groupmode="layer"
     id="layer1"
     style="display:inline">
    <path
       sodipodi:type="arc"
       style="fill:#ff0098;fill-opacity:1"
       id="path2985"
       sodipodi:cx="404.28571"
       sodipodi:cy="600.93359"
       sodipodi:rx="270"
       sodipodi:ry="268.57144"
       d="m 674.28571,600.93359 a 270,268.57144 0 0 1 -0.11468,7.82675"
       sodipodi:start="0"
       sodipodi:end="0.029146263"
       sodipodi:open="true" />
    <g
       id="g4614"
       inkscape:export-filename="G:\demos\hamburger\images\ducts-unlimited-logo.png"
       inkscape:export-xdpi="55.869999"
       inkscape:export-ydpi="55.869999">
      <g
         transform="translate(0,-30.141044)"
         id="g4579">
        <text
           xml:space="preserve"
           style="font-size:57.07823181px;font-style:normal;font-weight:normal;line-height:125%;letter-spacing:0px;word-spacing:0px;fill:#000000;fill-opacity:1;stroke:none;font-family:Sans"
           x="302.55685"
           y="511.94943"
           id="text3990"
           sodipodi:linespacing="125%"><tspan
             sodipodi:role="line"
             id="tspan3992"
             x="302.55685"
             y="511.94943"
             style="font-size:72px;font-style:normal;font-variant:normal;font-weight:normal;font-stretch:normal;fill:#787878;fill-opacity:1;font-family:Abraham Lincoln;-inkscape-font-specification:Abraham Lincoln"><tspan
               style="fill:#737373;fill-opacity:1"
               id="tspan3857">Ducts Unlimited</tspan></tspan></text>
        <text
           xml:space="preserve"
           style="font-size:24.22537422px;font-style:normal;font-weight:normal;line-height:125%;letter-spacing:0px;word-spacing:0px;fill:#000000;fill-opacity:1;stroke:none;font-family:Sans"
           x="455.32639"
           y="435.93411"
           id="text3994"
           sodipodi:linespacing="125%"
           transform="scale(0.79918426,1.2512759)"><tspan
             sodipodi:role="line"
             x="455.32639"
             y="435.93411"
             id="tspan3998"
             style="fill:#d8502a;fill-opacity:1">Mechanical Systems Inc.</tspan></text>
      </g>
      <g
         transform="matrix(1.1627675,0,0,0.99095736,-46.388131,-5.2754915)"
         id="g4571">
        <path
           id="path32"
           style="fill:#000000;fill-opacity:1;fill-rule:evenodd;stroke:none;display:inline"
           d="m 230.01425,921.35341 c -0.92797,-11.85356 -7.73762,-21.78532 -17.26625,-27.05152 -3.08403,-1.70007 -4.55468,-3.5062 -4.65161,-7.19423 l -3.25311,-123.65171 c -0.0962,-3.68455 0.90152,-4.80385 4.15142,-6.6221 11.9547,-6.68715 16.58654,-21.7245 10.75434,-34.1274 -0.8162,-1.73286 -2.19019,-2.37936 -3.15185,-0.5605 -0.56556,1.07109 -7.03382,12.31443 -7.819,13.6856 -0.9499,1.65955 -2.24271,2.83869 -4.30366,2.35079 -5.45161,-1.29098 -11.38319,-4.56128 -15.43092,-8.50811 -1.53079,-1.49247 -1.27485,-3.24344 -0.43784,-4.96549 0.69039,-1.42303 6.34357,-13.11595 6.90913,-14.18662 0.96165,-1.81928 -0.32227,-2.63808 -2.18797,-2.38341 -13.35035,1.82592 -23.116,14.03212 -22.02815,27.91101 0.42383,5.42177 2.44459,10.32147 5.55158,14.25951 2.26902,2.87535 2.55517,3.38468 2.52822,8.35499 l -0.71223,133.17772 c -0.0134,2.50185 -0.56231,4.28169 -3.02857,6.41022 -11.32613,9.77526 -15.04157,26.38715 -8.45086,40.40325 1.05705,2.24757 2.84051,3.08557 4.08726,0.72667 0.73354,-1.38824 9.12058,-15.96854 10.13857,-17.74636 1.23231,-2.15127 2.90797,-3.68062 5.58156,-3.0477 7.06823,1.67303 14.7602,5.91464 20.00921,11.03253 1.98467,1.93448 1.65314,4.20528 0.5684,6.43843 -0.89679,1.84473 -8.22645,17.00827 -8.96084,18.39652 -1.2459,2.35889 0.41809,3.42086 2.83747,3.09064 17.3128,-2.3673 29.97589,-18.19662 28.5657,-36.19273"
           inkscape:connector-curvature="0"
           clip-path="url(#clipPath4042)"
           transform="matrix(0.77726552,-0.00812437,0.00812437,0.77726552,71.04763,-88.619919)" />
        <g
           id="g4565"
           transform="matrix(0.40621798,0,0,0.52623018,-270.0326,344.12035)"
           style="fill:#cf2b08;fill-opacity:1">
          <g
             transform="matrix(0.125,0,0,-0.125,1091.6398,1016.3762)"
             id="g4027"
             style="fill:#cf2b08;fill-opacity:1">
            <g
               id="g4029"
               clip-path="url(#clipPath4031)"
               style="fill:#cf2b08;fill-opacity:1">
              <path
                 inkscape:connector-curvature="0"
                 d="m 2052.41,5978.84 c 0,21.64 -0.78,43.09 -2.2,64.34 l 149.79,93.05 c -5.68,40.1 -13.46,79.52 -23.3,118.13 l -173.89,28.61 c -13.81,41.03 -30.41,80.79 -49.45,119.11 l 102.7,143.15 c -20.55,34.63 -42.88,68.07 -66.97,100.14 l -171.68,-40.14 c -28.26,32.34 -58.68,62.76 -91.02,91.02 l 40.14,171.68 c -32.07,24.08 -65.51,46.41 -100.14,66.97 l -143.15,-102.69 c -38.32,19.03 -78.07,35.62 -119.11,49.43 l -28.61,173.9 c -38.61,9.84 -78.03,17.6 -118.13,23.29 l -93.03,-149.79 c -21.27,1.43 -42.72,2.21 -64.36,2.21 -21.63,0 -43.07,-0.78 -64.35,-2.21 l -93.033,149.79 c -40.097,-5.69 -79.519,-13.45 -118.125,-23.29 l -28.601,-173.9 c -41.047,-13.81 -80.801,-30.4 -119.133,-49.43 L 533.613,6934.9 c -34.617,-20.55 -68.054,-42.89 -100.129,-66.97 l 40.141,-171.68 c -32.355,-28.26 -62.766,-58.68 -91.02,-91.02 l -171.687,40.14 c -24.082,-32.07 -46.414,-65.51 -66.973,-100.14 L 246.648,6402.08 C 227.598,6363.76 211.023,6324 197.195,6282.97 L 23.3125,6254.36 C 13.457,6215.75 5.69141,6176.33 0,6136.23 l 149.805,-93.05 c -1.414,-21.25 -2.215,-42.7 -2.215,-64.34 0,-21.63 0.801,-43.08 2.215,-64.35 L 0.0117188,5821.45 C 5.69141,5781.35 13.457,5741.93 23.3125,5703.32 l 173.8825,-28.59 c 13.828,-41.05 30.403,-80.8 49.453,-119.13 L 143.945,5412.44 c 20.559,-34.61 42.891,-68.05 66.961,-100.12 l 171.699,40.14 c 28.254,-32.35 58.665,-62.77 91.02,-91.01 l -40.141,-171.7 c 32.063,-24.07 65.512,-46.41 100.129,-66.98 l 143.145,102.72 c 38.332,-19.05 78.086,-35.63 119.133,-49.45 l 28.601,-173.89 c 38.606,-9.85 78.028,-17.62 118.125,-23.31 l 93.033,149.79 c 21.28,-1.4 42.72,-2.2 64.35,-2.2 21.64,0 43.09,0.8 64.36,2.2 l 93.03,-149.79 c 40.1,5.69 79.52,13.46 118.13,23.31 l 28.61,173.89 c 41.04,13.82 80.79,30.4 119.11,49.45 l 143.15,-102.72 c 34.63,20.57 68.07,42.91 100.14,66.98 l -40.14,171.7 c 32.34,28.24 62.76,58.66 91.02,91.01 l 171.68,-40.14 c 24.09,32.07 46.42,65.51 66.97,100.12 l -102.7,143.16 c 19.04,38.33 35.64,78.08 49.45,119.13 l 173.89,28.59 c 9.84,38.61 17.62,78.03 23.3,118.13 l -149.79,93.04 c 1.42,21.27 2.2,42.72 2.2,64.35 z m -952.41,-750 c -414.219,0 -750,335.79 -750,750 0,414.21 335.781,750 750,750 414.21,0 750,-335.79 750,-750 0,-414.21 -335.79,-750 -750,-750"
                 id="path4035"
                 style="fill:#cf2b08;fill-opacity:1" />
            </g>
          </g>
          <path
             inkscape:connector-curvature="0"
             d="m 1229.1398,169.0212 c -55.229,0 -100,44.7725 -100,100 0,55.22875 44.771,100 100,100 55.2275,0 100,-44.77125 100,-100 0,-55.2275 -44.7725,-100 -100,-100 z m 0,189.33375 c -49.3369,0 -89.3335,-39.99625 -89.3335,-89.33375 0,-49.3375 39.9966,-89.33375 89.3335,-89.33375 49.3375,0 89.3338,39.99625 89.3338,89.33375 0,49.3375 -39.9963,89.33375 -89.3338,89.33375"
             style="fill:#cf2b08;fill-opacity:1;fill-rule:nonzero;stroke:none"
             id="path4037" />
        </g>
      </g>
    </g>
  </g>
</svg>
